<svg xmlns="http://www.w3.org/2000/svg" xmlns:xlink="http://www.w3.org/1999/xlink" width="706" height="655.564" viewBox="0 0 706 655.564">
  <defs>
    <linearGradient id="linear-gradient" x1="2.635" y1="8.359" x2="1.835" y2="5.415" gradientUnits="objectBoundingBox">
      <stop offset="0" stop-color="#09005d"/>
      <stop offset="1" stop-color="#1a0f91"/>
    </linearGradient>
  </defs>
  <g id="About_Graphic_2" data-name="About Graphic 2" transform="translate(-463.208 -503.683)">
    <ellipse id="Ellipse_9" data-name="Ellipse 9" cx="353" cy="33" rx="353" ry="33" transform="translate(463.208 1093.247)" fill="#e8e8e8"/>
    <rect id="Rectangle_81" data-name="Rectangle 81" width="591.135" height="409.44" rx="36.505" transform="translate(518.218 548.493)" fill="#b8c1c9"/>
    <rect id="Rectangle_82" data-name="Rectangle 82" width="557.006" height="321.603" rx="36.505" transform="translate(532.535 619.192)" fill="#fff" opacity="0.26"/>
    <path id="Path_241" data-name="Path 241" d="M1152.923,683.843V659.177a27.918,27.918,0,0,0-27.961-27.694H591.28a27.929,27.929,0,0,0-27.974,27.694v24.666Z" transform="translate(-43.571 -82.983)" fill="#b8c1c9"/>
    <g id="Group_103" data-name="Group 103" transform="translate(540.52 574.82)">
      <circle id="Ellipse_5" data-name="Ellipse 5" cx="7.223" cy="7.223" r="7.223" transform="translate(0 10.215) rotate(-45)" fill="#fff" opacity="0.56"/>
      <circle id="Ellipse_6" data-name="Ellipse 6" cx="7.223" cy="7.223" r="7.223" transform="translate(25.755 3.309)" fill="#fff" opacity="0.56"/>
      <circle id="Ellipse_7" data-name="Ellipse 7" cx="7.223" cy="7.223" r="7.223" transform="translate(47.585 4.316)" fill="#fff" opacity="0.56"/>
    </g>
    <rect id="Rectangle_83" data-name="Rectangle 83" width="186.348" height="283.444" rx="12" transform="translate(552.647 638.363)" fill="#fff" opacity="0.56"/>
    <rect id="Rectangle_84" data-name="Rectangle 84" width="317.827" height="135.261" rx="12" transform="translate(751.557 638.271)" fill="#fff" opacity="0.56"/>
    <rect id="Rectangle_85" data-name="Rectangle 85" width="317.827" height="127.512" rx="12" transform="translate(750.177 789.661)" fill="#fff" opacity="0.56"/>
    <g id="Group_108" data-name="Group 108" transform="translate(611.169 505.03)" opacity="0.6">
      <g id="Group_104" data-name="Group 104" transform="translate(71.378)" opacity="0.3">
        <path id="Path_242" data-name="Path 242" d="M965.891,655.79a2.466,2.466,0,0,1-2.839-1.677c-.835-2.657-1.568-5.39-2.177-8.122a2.466,2.466,0,0,1,1.87-2.944l.047-.01a2.465,2.465,0,0,1,2.9,1.88c.578,2.6,1.274,5.192,2.067,7.716a2.465,2.465,0,0,1-1.613,3.092A2.412,2.412,0,0,1,965.891,655.79Zm-4.116-21.082a2.539,2.539,0,0,1-.29.041,2.466,2.466,0,0,1-2.661-2.254c-.23-2.788-.344-5.613-.337-8.4a2.466,2.466,0,1,1,4.931.011c-.007,2.646.1,5.33.321,7.979A2.466,2.466,0,0,1,961.775,634.708Zm.628-21.464a2.467,2.467,0,0,1-2.931-2.766c.395-2.763.915-5.544,1.546-8.265a2.466,2.466,0,0,1,4.8,1.114c-.6,2.584-1.093,5.223-1.468,7.848A2.467,2.467,0,0,1,962.4,613.244Zm5.413-20.789a2.467,2.467,0,0,1-2.789-3.3c1-2.606,2.132-5.2,3.354-7.711a2.466,2.466,0,0,1,4.434,2.158c-1.161,2.384-2.233,4.848-3.186,7.326A2.465,2.465,0,0,1,967.816,592.455Zm9.913-19.06a2.466,2.466,0,0,1-2.537-3.791c1.553-2.313,3.227-4.593,4.976-6.774a2.465,2.465,0,1,1,3.847,3.084c-1.663,2.073-3.254,4.24-4.73,6.438A2.457,2.457,0,0,1,977.729,573.4ZM991.61,557a2.465,2.465,0,0,1-2.185-4.209c2.029-1.915,4.166-3.768,6.352-5.505a2.466,2.466,0,0,1,3.069,3.861c-2.077,1.651-4.107,3.41-6.036,5.23A2.448,2.448,0,0,1,991.61,557Zm87.377-23.722a2.452,2.452,0,0,1-1.042-.014c-2.582-.594-5.224-1.084-7.853-1.455a2.465,2.465,0,1,1,.688-4.882c2.769.39,5.552.906,8.271,1.531a2.466,2.466,0,0,1-.064,4.82Zm-70.22,10.824a2.466,2.466,0,0,1-1.742-4.542c2.4-1.416,4.9-2.745,7.418-3.95a2.466,2.466,0,1,1,2.129,4.448c-2.391,1.144-4.761,2.406-7.044,3.751A2.466,2.466,0,0,1,1008.767,544.106Zm48.879-13.252a2.432,2.432,0,0,1-.494.05c-2.651,0-5.337.113-7.983.336a2.466,2.466,0,1,1-.415-4.914c2.785-.235,5.611-.354,8.4-.354a2.466,2.466,0,0,1,.492,4.882Zm-29.271,4.509a2.466,2.466,0,0,1-1.231-4.768c2.658-.841,5.389-1.579,8.115-2.191l.052-.012a2.466,2.466,0,0,1,1.03,4.822c-2.59.583-5.183,1.284-7.708,2.083C1028.547,535.323,1028.461,535.346,1028.375,535.363Z" transform="translate(-958.487 -525.972)" fill="#7d97f4"/>
        <path id="Path_243" data-name="Path 243" d="M1281.472,547.716a2.45,2.45,0,0,1-1.465-.152c-1.167-.5-2.364-.992-3.558-1.451a2.465,2.465,0,1,1,1.769-4.6c1.256.482,2.515,1,3.743,1.525a2.466,2.466,0,0,1-.489,4.681Z" transform="translate(-1144.521 -535.011)" fill="#7d97f4"/>
      </g>
      <g id="Group_105" data-name="Group 105" transform="translate(125.385 58.531)" opacity="0.3">
        <path id="Path_244" data-name="Path 244" d="M1410.586,676.588a2.466,2.466,0,0,1-2.8-1.551c-.447-1.19-.925-2.391-1.424-3.568a2.466,2.466,0,1,1,4.541-1.922c.525,1.24,1.029,2.5,1.5,3.757a2.467,2.467,0,0,1-1.821,3.284Z" transform="translate(-1275.736 -668.041)" fill="#7d97f4"/>
        <path id="Path_245" data-name="Path 245" d="M1176.536,827.628q-1.668.339-3.359.623a2.466,2.466,0,0,1-.818-4.864c2.6-.437,5.181-.98,7.694-1.619a2.466,2.466,0,1,1,1.216,4.779C1179.715,826.943,1178.122,827.307,1176.536,827.628Zm-16.314,1.9a2.492,2.492,0,0,1-.417.049c-2.75.085-5.533.054-8.274-.091a2.465,2.465,0,1,1,.262-4.924c2.6.138,5.247.167,7.86.087a2.465,2.465,0,0,1,.569,4.88Zm33.368-7.045a2.466,2.466,0,0,1-1.416-4.7c2.413-.981,4.817-2.079,7.145-3.265a2.466,2.466,0,0,1,2.237,4.4c-2.452,1.248-4.984,2.4-7.524,3.438A2.494,2.494,0,0,1,1193.59,822.482Zm-54.444,5.368a2.466,2.466,0,0,1-.957,0c-2.7-.52-5.408-1.163-8.052-1.909a2.465,2.465,0,0,1,1.34-4.745c2.51.708,5.082,1.318,7.645,1.812a2.466,2.466,0,0,1,.023,4.839Zm73.011-15.445a2.466,2.466,0,0,1-1.9-4.44c2.137-1.487,4.24-3.087,6.251-4.756a2.465,2.465,0,1,1,3.148,3.8c-2.118,1.757-4.332,3.441-6.582,5.007A2.45,2.45,0,0,1,1212.157,812.4Zm15.906-13.907a2.466,2.466,0,0,1-2.309-4.083c1.765-1.925,3.47-3.946,5.066-6.008a2.466,2.466,0,1,1,3.9,3.019c-1.681,2.17-3.474,4.3-5.332,6.322A2.453,2.453,0,0,1,1228.062,798.5Zm12.5-17.044a2.466,2.466,0,0,1-2.626-3.648c1.305-2.265,2.529-4.609,3.638-6.968a2.466,2.466,0,0,1,4.463,2.1c-1.167,2.482-2.455,4.95-3.828,7.333A2.461,2.461,0,0,1,1240.558,781.453Zm8.48-19.362a2.466,2.466,0,0,1-2.842-3.151c.778-2.494,1.458-5.049,2.022-7.594a2.465,2.465,0,1,1,4.814,1.065c-.593,2.682-1.31,5.372-2.129,8A2.465,2.465,0,0,1,1249.038,762.09Zm4.024-20.76a2.468,2.468,0,0,1-2.949-2.614c.208-2.6.309-5.238.3-7.85a2.466,2.466,0,0,1,4.931-.02c.011,2.75-.094,5.53-.314,8.264A2.468,2.468,0,0,1,1253.063,741.331Zm-.634-21.122c-.05.01-.1.019-.151.026a2.465,2.465,0,0,1-2.784-2.1c-.267-1.9-.6-3.821-.977-5.7q-.207-1.021-.436-2.032a2.466,2.466,0,0,1,1.863-2.948,2.438,2.438,0,0,1,2.948,1.861q.24,1.065.458,2.138c.4,1.978.747,4,1.028,6A2.465,2.465,0,0,1,1252.428,720.208Z" transform="translate(-1112.371 -691.174)" fill="#7d97f4"/>
        <path id="Path_246" data-name="Path 246" d="M1096.109,975.157a2.454,2.454,0,0,1-1.477-.157c-1.223-.535-2.458-1.106-3.67-1.7a2.466,2.466,0,0,1,2.161-4.433c1.152.562,2.325,1.1,3.486,1.612a2.465,2.465,0,0,1-.5,4.675Z" transform="translate(-1089.576 -844.784)" fill="#7d97f4"/>
      </g>
      <path id="Path_247" data-name="Path 247" d="M1050.939,719.573a1.152,1.152,0,0,0,1.335.089l11.938-7.362a61.108,61.108,0,0,0,18.947,5.732l5.86,12.733a1.152,1.152,0,0,0,1.161.665l16.74-1.667a1.153,1.153,0,0,0,1.007-.88l3.233-13.638a61.1,61.1,0,0,0,17.444-9.356l13.156,4.863a1.152,1.152,0,0,0,1.291-.351l10.659-13.017a1.152,1.152,0,0,0,.089-1.335l-7.362-11.938a61.12,61.12,0,0,0,5.731-18.947l12.733-5.86a1.153,1.153,0,0,0,.664-1.161L1163.9,641.4a1.152,1.152,0,0,0-.881-1.007l-13.638-3.234a61.09,61.09,0,0,0-9.356-17.443l4.863-13.156a1.153,1.153,0,0,0-.351-1.291l-13.017-10.658a1.151,1.151,0,0,0-1.335-.089l-11.938,7.362a61.086,61.086,0,0,0-18.947-5.732l-5.86-12.733a1.153,1.153,0,0,0-1.161-.665l-16.741,1.668a1.152,1.152,0,0,0-1.007.881l-3.233,13.639a61.08,61.08,0,0,0-17.444,9.356l-13.155-4.863a1.152,1.152,0,0,0-1.291.351L1028.749,616.8a1.152,1.152,0,0,0-.089,1.335l7.362,11.938a61.09,61.09,0,0,0-5.732,18.947l-12.733,5.86a1.152,1.152,0,0,0-.665,1.161l1.667,16.74a1.152,1.152,0,0,0,.881,1.007l13.638,3.233a61.1,61.1,0,0,0,9.356,17.444l-4.863,13.156a1.153,1.153,0,0,0,.351,1.291Z" transform="translate(-921.449 -559.357)" fill="#7d97f4"/>
      <path id="Path_248" data-name="Path 248" d="M1176.55,755.625a16.919,16.919,0,1,1,2.391-.671A16.936,16.936,0,0,1,1176.55,755.625Zm-5.9-29.291a13.151,13.151,0,0,0-1.852.519,12.927,12.927,0,1,0,1.852-.519Z" transform="translate(-1003.417 -641.314)" fill="#91b3fa"/>
      <path id="Path_249" data-name="Path 249" d="M1146.824,743.869a42.267,42.267,0,0,1-4.225.637h0q-.674.068-1.351.113a41.854,41.854,0,0,1-6.658-.082l-.09-.008-.256-.026c-.166-.016-.332-.035-.5-.054a.986.986,0,0,1,.223-1.959,39.657,39.657,0,0,0,39.873-21.545,39.372,39.372,0,0,0,4.049-21.741,40.094,40.094,0,0,0-.608-4.031,39.611,39.611,0,0,0-78.219,11.882,39.612,39.612,0,0,0,7.6,19.682.986.986,0,1,1-1.583,1.176,41.45,41.45,0,0,1-7.35-16.486,41.585,41.585,0,0,1,36.625-49.674,41.592,41.592,0,0,1,44.859,33.024,42.7,42.7,0,0,1,.638,4.231,41.59,41.59,0,0,1-33.03,44.86Z" transform="translate(-968.494 -605.689)" fill="#91b3fa"/>
      <g id="Group_106" data-name="Group 106" transform="translate(0 112.984)" opacity="0.3">
        <path id="Path_250" data-name="Path 250" d="M802.682,1027.067a1.522,1.522,0,0,1-1.649-.782c-.6-1.143-1.181-2.32-1.716-3.5a1.523,1.523,0,0,1,2.773-1.258c.51,1.123,1.06,2.245,1.636,3.336a1.52,1.52,0,0,1-1.045,2.2Z" transform="translate(-793.436 -929.821)" fill="#7d97f4"/>
        <path id="Path_251" data-name="Path 251" d="M789.987,886.639a1.522,1.522,0,0,1-1.755-1.04,66.107,66.107,0,0,1-1.665-6.489q-.14-.688-.266-1.385a1.577,1.577,0,0,1,1.227-1.771,1.524,1.524,0,0,1,1.77,1.226q.12.666.253,1.324a63.33,63.33,0,0,0,1.587,6.189,1.523,1.523,0,0,1-1,1.907C790.088,886.616,790.038,886.629,789.987,886.639Zm-2.816-15.559a1.6,1.6,0,0,1-.217.029,1.524,1.524,0,0,1-1.608-1.434,66,66,0,0,1,.032-8.105,1.523,1.523,0,0,1,3.039.2,63.181,63.181,0,0,0-.031,7.732A1.522,1.522,0,0,1,787.171,871.08Zm1.041-15.777a1.523,1.523,0,0,1-1.8-1.781,65.664,65.664,0,0,1,2.025-7.854,1.523,1.523,0,0,1,2.9.942,62.547,62.547,0,0,0-1.931,7.489A1.525,1.525,0,0,1,788.212,855.3Zm4.888-15.039a1.522,1.522,0,0,1-1.681-2.139,66.022,66.022,0,0,1,3.884-7.118,1.523,1.523,0,0,1,2.578,1.622,62.846,62.846,0,0,0-3.7,6.787A1.521,1.521,0,0,1,793.1,840.264Zm8.413-13.389a1.523,1.523,0,0,1-1.485-2.454,66.621,66.621,0,0,1,5.494-5.957,1.523,1.523,0,0,1,2.109,2.2,63.485,63.485,0,0,0-5.241,5.684A1.517,1.517,0,0,1,801.513,826.875Zm11.406-10.94a1.523,1.523,0,0,1-1.215-2.713,65.638,65.638,0,0,1,6.78-4.437,1.523,1.523,0,0,1,1.507,2.647,62.535,62.535,0,0,0-6.463,4.229A1.506,1.506,0,0,1,812.919,815.935Zm13.731-7.817a1.523,1.523,0,0,1-.885-2.9,66.046,66.046,0,0,1,7.665-2.639,1.524,1.524,0,0,1,.813,2.937,62.646,62.646,0,0,0-7.31,2.516A1.535,1.535,0,0,1,826.65,808.117Zm23.133-4.891a1.49,1.49,0,0,1-.267.03,63.192,63.192,0,0,0-6.7.526c-.338.043-.669.089-1,.139a1.523,1.523,0,0,1-.451-3.013c.352-.052.7-.1,1.058-.146a66.275,66.275,0,0,1,7.021-.55,1.523,1.523,0,0,1,.341,3.015Z" transform="translate(-785.237 -800.211)" fill="#7d97f4"/>
      </g>
      <g id="Group_107" data-name="Group 107" transform="translate(36.139 194.042)" opacity="0.3">
        <path id="Path_252" data-name="Path 252" d="M932.106,1045.932a1.523,1.523,0,0,1-.625-2.981,63,63,0,0,0,7.321-2.055,1.523,1.523,0,1,1,1,2.878,66.278,66.278,0,0,1-7.675,2.154Zm-7.7,1.188a1.434,1.434,0,0,1-.164.024,66.661,66.661,0,0,1-7.97.266,1.523,1.523,0,0,1,.081-3.046,63.714,63.714,0,0,0,7.605-.252,1.523,1.523,0,0,1,.447,3.008Zm22.387-6.293a1.523,1.523,0,0,1-.975-2.858,63.113,63.113,0,0,0,6.609-3.766,1.523,1.523,0,0,1,1.665,2.551,66.14,66.14,0,0,1-6.929,3.947A1.52,1.52,0,0,1,946.794,1040.827Zm-37.94,5.865a1.528,1.528,0,0,1-.53.014,65.373,65.373,0,0,1-7.8-1.669,1.523,1.523,0,1,1,.818-2.934,62.479,62.479,0,0,0,7.439,1.591,1.523,1.523,0,0,1,.076,3Zm50.956-14.369a1.523,1.523,0,0,1-1.286-2.657,62.68,62.68,0,0,0,5.508-5.242,1.523,1.523,0,1,1,2.23,2.075,66.238,66.238,0,0,1-5.775,5.5A1.522,1.522,0,0,1,959.81,1032.323Zm10.6-11.378a1.523,1.523,0,0,1-1.536-2.388,63.548,63.548,0,0,0,4.1-6.41,1.523,1.523,0,0,1,2.661,1.481,66.547,66.547,0,0,1-4.295,6.72A1.519,1.519,0,0,1,970.408,1020.945Zm7.567-13.591a1.524,1.524,0,0,1-1.712-2.068,62.2,62.2,0,0,0,2.439-7.205,1.523,1.523,0,0,1,2.939.8,65.87,65.87,0,0,1-2.557,7.557A1.521,1.521,0,0,1,977.974,1007.354Z" transform="translate(-888.51 -996.958)" fill="#7d97f4"/>
        <path id="Path_253" data-name="Path 253" d="M878.248,1100.943a1.518,1.518,0,0,1-.887-.087c-1.2-.5-2.4-1.04-3.549-1.6a1.523,1.523,0,0,1,1.335-2.739c1.1.536,2.237,1.05,3.385,1.529a1.523,1.523,0,0,1-.284,2.9Z" transform="translate(-872.955 -1055.409)" fill="#7d97f4"/>
      </g>
      <path id="Path_254" data-name="Path 254" d="M846.793,929.4a.772.772,0,0,0,.893.06l7.988-4.927a40.884,40.884,0,0,0,12.678,3.835l3.921,8.52a.771.771,0,0,0,.777.445l11.2-1.116a.772.772,0,0,0,.674-.59l2.163-9.126a40.878,40.878,0,0,0,11.672-6.261l8.8,3.254a.772.772,0,0,0,.864-.235l7.132-8.71a.772.772,0,0,0,.06-.894l-4.927-7.988a40.877,40.877,0,0,0,3.836-12.678l8.52-3.921a.771.771,0,0,0,.445-.777l-1.116-11.2a.769.769,0,0,0-.589-.674l-9.126-2.164A40.876,40.876,0,0,0,906.4,862.58l3.254-8.8a.771.771,0,0,0-.234-.864l-8.71-7.132a.771.771,0,0,0-.893-.06l-7.988,4.927a40.871,40.871,0,0,0-12.678-3.835l-3.921-8.521a.771.771,0,0,0-.777-.445l-11.2,1.116a.771.771,0,0,0-.674.589l-2.163,9.126a40.889,40.889,0,0,0-11.673,6.261l-8.8-3.254a.771.771,0,0,0-.864.235l-7.132,8.71a.771.771,0,0,0-.06.893l4.926,7.988a40.881,40.881,0,0,0-3.835,12.678l-8.521,3.921a.771.771,0,0,0-.444.777l1.116,11.2a.771.771,0,0,0,.589.674l9.126,2.164A40.89,40.89,0,0,0,841.1,912.6l-3.254,8.8a.771.771,0,0,0,.234.864Z" transform="translate(-808.034 -709.355)" fill="#7d97f4"/>
      <path id="Path_255" data-name="Path 255" d="M930.58,953.449a11.546,11.546,0,1,1,1.644-.461A11.725,11.725,0,0,1,930.58,953.449Zm-3.949-19.6a8.474,8.474,0,0,0-6.289,11.184,8.473,8.473,0,0,0,10.847,5.091h0a8.474,8.474,0,0,0-4.559-16.275Z" transform="translate(-862.593 -763.918)" fill="#91b3fa"/>
      <path id="Path_256" data-name="Path 256" d="M909.863,945.276a28.95,28.95,0,0,1-8.73.424l-.261-.029a1.523,1.523,0,1,1,.344-3.026,25.719,25.719,0,0,0,5.459.035h0c.1-.01.2-.021.3-.032a25.388,25.388,0,0,0,11.764-4.392,25.782,25.782,0,0,0,5.088-4.667l.036-.044c.037-.045.075-.089.111-.135a25.474,25.474,0,0,0,5.677-18.786,26.026,26.026,0,0,0-.393-2.609,25.643,25.643,0,1,0-45.717,20.433,1.523,1.523,0,1,1-2.445,1.816A28.689,28.689,0,1,1,932.241,911.4a29.253,29.253,0,0,1,.44,2.918A28.729,28.729,0,0,1,909.863,945.276Z" transform="translate(-838.28 -739.127)" fill="#91b3fa"/>
    </g>
    <path id="Path_257" data-name="Path 257" d="M891.228,1273.666s-.276-1.22-.709-3.481a2.366,2.366,0,0,1,3.465-2.518c.545-.9,1.175-1.91,1.883-3.009a2.366,2.366,0,1,1,3.976,2.566c-2,3.094-3.293,5.4-3.916,6.505-.18.318-.3.537-.371.646l-3.039,4.982Zm-2.671-15.273c-.562-3.876-1.061-7.859-1.486-11.838a2.366,2.366,0,1,1,4.705-.5c.419,3.917.912,7.843,1.463,11.662a2.366,2.366,0,1,1-4.683.677Zm14.707-.244a2.366,2.366,0,0,1-.4-3.322,118.272,118.272,0,0,1,7.923-9.117,2.365,2.365,0,1,1,3.4,3.285,113.846,113.846,0,0,0-7.605,8.756,2.367,2.367,0,0,1-3.322.4Zm16.1-17.311a2.367,2.367,0,0,1,.358-3.328,79.062,79.062,0,0,1,10.037-6.914,2.366,2.366,0,1,1,2.364,4.1,73.985,73.985,0,0,0-9.432,6.5,2.368,2.368,0,0,1-3.327-.359Zm-33.349-6.157c-.283-3.992-.493-8-.623-11.908a2.365,2.365,0,1,1,4.728-.157c.13,3.85.336,7.8.615,11.73a2.366,2.366,0,1,1-4.72.335Zm53.421-6.194a2.365,2.365,0,0,1,1.464-3.008,56.673,56.673,0,0,1,8.493-2.224q1.683-.3,3.254-.645a2.367,2.367,0,0,1,1.006,4.626q-1.657.361-3.426.677a52.152,52.152,0,0,0-7.782,2.037,2.34,2.34,0,0,1-1.092.109A2.366,2.366,0,0,1,939.437,1228.486Zm46.432,2.107a2.364,2.364,0,0,1,1.444-2.125,17.536,17.536,0,0,1,4.824-5.24A2.365,2.365,0,1,1,995,1226.99c-2.651,2.022-4,3.913-4.508,6.322l-4.681-.552Zm-23.605-8.174a2.368,2.368,0,0,1,1.322-3.074,42.65,42.65,0,0,0,9.8-5.35,2.367,2.367,0,0,1,2.836,3.79,47.426,47.426,0,0,1-10.88,5.957,2.367,2.367,0,0,1-3.074-1.323Zm-77.044-11.575c.019-3.993.123-8.007.3-11.928a2.367,2.367,0,0,1,4.728.22c-.18,3.856-.282,7.8-.3,11.732a2.365,2.365,0,0,1-2.377,2.354,2.459,2.459,0,0,1-.314-.023A2.367,2.367,0,0,1,885.219,1210.844Zm100.834,7.917c.036-4.567.024-8.536-.037-11.8a2.366,2.366,0,1,1,4.731-.091c.063,3.306.076,7.317.038,11.928a2.367,2.367,0,0,1-2.386,2.347,2.843,2.843,0,0,1-.306-.023A2.365,2.365,0,0,1,986.053,1218.761Zm15.541,1.358a2.367,2.367,0,0,1,.866-3.232c3-1.734,6.272-3.679,9.862-6.162a2.366,2.366,0,1,1,2.693,3.892c-3.728,2.58-7.1,4.585-10.188,6.369a2.367,2.367,0,0,1-3.233-.867Zm-20.077-10.857a2.364,2.364,0,0,1-.826-3.241,29.6,29.6,0,0,0,3.216-8.262c.215-.84.4-1.52.58-2.006a6.351,6.351,0,0,1,.292-.662,2.308,2.308,0,0,1,3.164-.927,2.436,2.436,0,0,1,.969,3.263c-.136.362-.259.874-.42,1.5a34.261,34.261,0,0,1-3.732,9.507,2.363,2.363,0,0,1-3.244.825ZM886.352,1187c.33-3.551.736-7.094,1.208-10.526l.188-1.343a2.366,2.366,0,0,1,2.668-2.01h.009a2.366,2.366,0,0,1,2.008,2.676l-.185,1.32c-.461,3.363-.859,6.835-1.183,10.319a2.366,2.366,0,0,1-2.575,2.137c-.036,0-.07-.007-.106-.012A2.365,2.365,0,0,1,886.352,1187Zm134.862,19.977a2.368,2.368,0,0,1,.232-3.339,112.872,112.872,0,0,0,8.321-8.044,2.366,2.366,0,1,1,3.456,3.232,117.79,117.79,0,0,1-8.67,8.383,2.367,2.367,0,0,1-3.338-.232Zm16.5-16.889a2.365,2.365,0,0,1-.409-3.321q.763-.976,1.53-1.991a78.694,78.694,0,0,0,5.017-7.479,2.367,2.367,0,0,1,4.075,2.407,83.535,83.535,0,0,1-5.317,7.925q-.791,1.045-1.576,2.052a2.365,2.365,0,0,1-3.321.406Zm-146.089-23.959a2.367,2.367,0,0,1-1.854-2.785c.8-3.97,1.71-7.893,2.713-11.664a2.365,2.365,0,1,1,4.572,1.216c-.977,3.677-1.868,7.5-2.646,11.38a2.365,2.365,0,0,1-2.64,1.878C891.721,1166.147,891.672,1166.138,891.623,1166.129Zm158.609,3.966a2.365,2.365,0,0,1-1.313-3.077,75.791,75.791,0,0,0,3.452-10.928,2.366,2.366,0,0,1,4.607,1.081,80.737,80.737,0,0,1-3.668,11.613,2.367,2.367,0,0,1-2.516,1.462A2.338,2.338,0,0,1,1050.232,1170.094Zm-152.8-26.889a2.367,2.367,0,0,1-1.472-3.006c1.311-3.834,2.765-7.6,4.318-11.208a2.367,2.367,0,0,1,4.346,1.875c-1.505,3.49-2.914,7.147-4.187,10.867a2.367,2.367,0,0,1-2.558,1.577A2.338,2.338,0,0,1,897.433,1143.205Zm156.731,1.548a83.174,83.174,0,0,0,.17-11.494,2.366,2.366,0,0,1,4.725-.256,87.767,87.767,0,0,1-.182,12.15,2.367,2.367,0,0,1-2.558,2.158c-.042,0-.083-.009-.124-.015A2.364,2.364,0,0,1,1054.164,1144.753Zm-147.693-23.387a2.365,2.365,0,0,1-.963-3.2c1.921-3.568,4.007-7.041,6.2-10.324a2.365,2.365,0,1,1,3.935,2.626c-2.109,3.16-4.117,6.506-5.966,9.941a2.364,2.364,0,0,1-3.2.961Zm146.46.482a50.325,50.325,0,0,0-2.927-10.289l-3.022-4.275a2.366,2.366,0,1,1,3.865-2.73l2.951,4.175-.035.024c1.966,2.8,3.792,12.087,3.812,12.19a2.366,2.366,0,1,1-4.644.906Zm-133.71-20.36a2.366,2.366,0,0,1-.314-3.331,112.62,112.62,0,0,1,8.188-8.871,2.367,2.367,0,0,1,3.3,3.4,106.643,106.643,0,0,0-7.84,8.494,2.366,2.366,0,0,1-3.332.312Zm16.567-16.808a2.366,2.366,0,0,1,.417-3.32,111.385,111.385,0,0,1,9.921-6.877,2.366,2.366,0,1,1,2.481,4.031,106.741,106.741,0,0,0-9.5,6.581,2.367,2.367,0,0,1-3.321-.415Zm104.362,12.948-6.83-9.659a2.367,2.367,0,0,1,3.865-2.734l6.83,9.659a2.367,2.367,0,0,1-3.865,2.734Zm-84.545-25.758a2.367,2.367,0,0,1,1.107-3.158c3.539-1.7,7.272-3.274,11.1-4.675a2.365,2.365,0,1,1,1.631,4.441c-3.682,1.351-7.275,2.866-10.676,4.5a2.366,2.366,0,0,1-3.158-1.108Zm70.883,6.439-6.83-9.659a2.367,2.367,0,0,1,3.865-2.734l6.83,9.659a2.367,2.367,0,0,1-3.865,2.734Zm-48.886-15a2.364,2.364,0,0,1,1.67-2.9c3.766-1.013,7.7-1.906,11.7-2.653a2.367,2.367,0,0,1,.867,4.653c-3.878.724-7.694,1.588-11.342,2.568a2.362,2.362,0,0,1-2.9-1.669Zm23.144-4.7a2.367,2.367,0,0,1,2.082-2.62c3.775-.431,7.69-.758,11.639-.968l1.3-.068.921,1.3a2.366,2.366,0,0,1-2.861,3.541c-3.551.2-7.067.505-10.466.895a2.364,2.364,0,0,1-2.619-2.081Z" transform="translate(-232.858 -331.989)" fill="#fff" opacity="0.3"/>
    <path id="Path_258" data-name="Path 258" d="M1098.481,1121.366s14.483,50.385-21.358,65.005-75.629,20.477-82.774,37.235c0,0-9.1-102.109,91.857-116.074Z" transform="translate(-296.903 -362.904)" fill="#ff7178"/>
    <path id="Path_259" data-name="Path 259" d="M1381.709,1081.164s30.641,41.356,23.227,57.148c-7.051,15.021-98.4,87.377-107.3,94.4a.961.961,0,0,1-1.309-.114h0a13.185,13.185,0,0,1-3.27-11.5c3.91-19.988,16.094-79.569,25.556-96.4C1330.044,1104.374,1381.709,1081.164,1381.709,1081.164Z" transform="translate(-472.529 -347.399)" fill="#ff7178"/>
    <path id="Path_260" data-name="Path 260" d="M1371.09,1220.36a1.181,1.181,0,0,0,.911-.257c.5-.408,49.838-40.9,70.4-59.157a12.363,12.363,0,0,0,3.575-13.006c-2.349-7.334-7.395-21.548-14.8-34.33a1.184,1.184,0,0,0-2.048,1.188c7.3,12.589,12.278,26.62,14.6,33.863a9.992,9.992,0,0,1-2.892,10.516c-20.526,18.227-69.833,58.691-70.328,59.1a1.182,1.182,0,0,0,.589,2.087Z" transform="translate(-517.954 -366.131)" fill="#fff" opacity="0.56"/>
    <path id="Path_261" data-name="Path 261" d="M1086.157,827.707s-38.862-33.748-55.179-27.579C1015.456,806,936.249,891.472,928.557,899.8a.961.961,0,0,0,.012,1.314h0a13.183,13.183,0,0,0,11.208,4.149c20.23-2.351,80.576-9.889,98.091-18.021C1059.019,877.422,1086.157,827.707,1086.157,827.707Z" transform="translate(-258.192 -181.705)" fill="#ff7178"/>
    <path id="Path_262" data-name="Path 262" d="M1010.422,882.386a1.182,1.182,0,0,0,1.016-.353c.444-.464,44.6-46.492,64.362-65.546a10,10,0,0,1,10.708-2.071c7.043,2.873,20.649,8.927,32.632,17.174a1.182,1.182,0,1,0,1.341-1.948,180.35,180.35,0,0,0-33.079-17.417,12.365,12.365,0,0,0-13.243,2.558c-19.795,19.088-63.983,65.151-64.427,65.612a1.184,1.184,0,0,0,.692,1.991Z" transform="translate(-305.879 -188.725)" fill="#fff" opacity="0.56"/>
    <path id="Path_263" data-name="Path 263" d="M1427.726,671.46a265.887,265.887,0,0,1-51.171,65.354c-69.686,64.864-132.125,100.486-150.149,110.141a10.1,10.1,0,0,1-10.3-.5,177.94,177.94,0,0,1-58.153-61.869,14.667,14.667,0,0,1,.5-15.235c12.964-19.9,52.8-77.037,119.839-138.717a265.852,265.852,0,0,1,68.6-45.725C1388.622,610.585,1414.383,648.911,1427.726,671.46Z" transform="translate(-392.118 -55.598)" fill="#ed5278"/>
    <path id="Path_264" data-name="Path 264" d="M1619.256,548.33c49.871-23.077,94.613-25.524,109.6-25.63a4.958,4.958,0,0,1,4.985,5.386c-1.262,14.884-7.128,59.049-33.757,106.794C1686.744,612.331,1660.983,574,1619.256,548.33Z" transform="translate(-664.478 -19.018)" fill="#ff7178"/>
    <path id="Path_265" data-name="Path 265" d="M1484.83,713.136c-18.1,16.749-18.2,46.073-.222,65.5s47.22,21.595,65.319,4.845,18.2-46.073.222-65.5S1502.929,696.387,1484.83,713.136Z" transform="translate(-577.414 -124.369)" fill="#fff" opacity="0.56"/>
    <path id="Path_266" data-name="Path 266" d="M1504.852,729.3c-14.422,13.346-14.5,36.712-.177,52.19s37.626,17.207,52.048,3.861,14.5-36.711.177-52.189S1519.274,715.957,1504.852,729.3Z" transform="translate(-590.817 -135.221)" fill="#7d97f4"/>
    <path id="Path_267" data-name="Path 267" d="M1621.085,787.266a1.183,1.183,0,0,0,1.184-.577c6.356-10.923,4.547-25.3-4.4-34.974a31.048,31.048,0,0,0-7.711-6.065,1.183,1.183,0,0,0-1.15,2.067,28.671,28.671,0,0,1,7.123,5.606c8.249,8.911,9.931,22.143,4.092,32.175a1.181,1.181,0,0,0,.427,1.617A1.156,1.156,0,0,0,1621.085,787.266Z" transform="translate(-658.095 -150.025)" fill="#fff" opacity="0.56"/>
    <path id="Path_268" data-name="Path 268" d="M1358.391,895.5c-11.957,11.064-12.022,30.437-.147,43.27s31.2,14.266,43.152,3.2,12.022-30.437.147-43.27S1370.347,884.434,1358.391,895.5Z" transform="translate(-505.789 -233.849)" fill="#fff" opacity="0.56"/>
    <path id="Path_269" data-name="Path 269" d="M1371.619,906.179c-9.527,8.816-9.58,24.253-.117,34.478s24.857,11.367,34.384,2.551,9.58-24.253.118-34.478S1381.146,897.362,1371.619,906.179Z" transform="translate(-514.643 -241.018)" fill="#7d97f4"/>
    <path id="Path_270" data-name="Path 270" d="M1447.776,944.294a1.182,1.182,0,0,0,1.184-.576A20.135,20.135,0,0,0,1446,920.139a20.813,20.813,0,0,0-5.2-4.086,1.182,1.182,0,1,0-1.147,2.067,18.507,18.507,0,0,1,4.606,3.626,17.75,17.75,0,0,1,2.65,20.782,1.181,1.181,0,0,0,.427,1.616A1.141,1.141,0,0,0,1447.776,944.294Z" transform="translate(-558.514 -250.224)" fill="#fff" opacity="0.56"/>
    <path id="Path_271" data-name="Path 271" d="M1756.926,2005.5c7.433.642,20.334,1.686,30.505,2.134,6.114.269,9.633-.329,11.661-1.141,0,.229-.01.445-.019.645a2.1,2.1,0,0,1-2,1.987,357.366,357.366,0,0,1-39.943.04,1.5,1.5,0,0,1-1.22-2.251A12.222,12.222,0,0,1,1756.926,2005.5Z" transform="translate(-744.709 -890.918)" fill="#09005d"/>
    <path id="Path_272" data-name="Path 272" d="M1789.18,1986.212c-10.171-.447-23.072-1.491-30.505-2.134,7.308-8.967,30.505-15.01,30.505-15.01h6.551a27.475,27.475,0,0,1,5.11,16C1798.813,1985.882,1795.294,1986.481,1789.18,1986.212Z" transform="translate(-746.458 -869.495)" fill="#1a0f91"/>
    <path id="Path_273" data-name="Path 273" d="M1833.853,1943.108l-.613,12.132a2.77,2.77,0,0,1-2.366,2.606,10.771,10.771,0,0,1-4.921-.407,3.279,3.279,0,0,1-2.2-2.52l-2.118-11.81Z" transform="translate(-783.477 -854.23)" fill="#ffc5b2"/>
    <path id="Path_274" data-name="Path 274" d="M2019.856,2032.251a6.394,6.394,0,0,0,5.294-5.059l.012.062a5.768,5.768,0,0,1-2.823,6.173,14.7,14.7,0,0,1-7.817,1.582,7.229,7.229,0,0,1-5.861-3.494l-.019-.031C2011.071,2033.037,2014.48,2033.22,2019.856,2032.251Z" transform="translate(-893.44 -903.672)" fill="#09005d"/>
    <path id="Path_275" data-name="Path 275" d="M1993.383,1952.179h5.4c8.23-.217,13.4,22.216,15.089,30.9a6.394,6.394,0,0,1-5.294,5.059c-5.376.969-8.785.786-11.214-.767-4.446-7.562-6.65-18.636-7.709-25.1C1988.453,1954.925,1993.383,1952.179,1993.383,1952.179Z" transform="translate(-882.167 -859.563)" fill="#1a0f91"/>
    <path id="Path_276" data-name="Path 276" d="M1993.971,1924.848l3,11.933a3.239,3.239,0,0,1-1.685,3.671,11.5,11.5,0,0,1-6.213,1.5,2.706,2.706,0,0,1-2.207-1.8l-4.4-12.554Z" transform="translate(-878.046 -843.493)" fill="#ffc5b2"/>
    <path id="Path_277" data-name="Path 277" d="M1754.233,1538.555s26.811,167.59,26.369,168.511a22.3,22.3,0,0,0,15.477.429s-2.425-89.589-8.105-123.939c0,0,45.757,80.075,60.287,119.974a36.324,36.324,0,0,0,13.852-5.032s-49.267-144.131-62.411-163.329Z" transform="translate(-743.846 -614.358)" fill="#1a0f91"/>
    <path id="Path_278" data-name="Path 278" d="M1807.577,1623.278a.792.792,0,0,0,.67-1.212l-10.019-16a.793.793,0,0,0-.515-.356l-7.374-1.484a.792.792,0,0,0-.312,1.552l7.039,1.417,9.838,15.714A.791.791,0,0,0,1807.577,1623.278Z" transform="translate(-764.52 -654.953)" fill="url(#linear-gradient)"/>
    <path id="Path_279" data-name="Path 279" d="M1455.33,1145.061s18.091,3.99,29.1,9.07a10.048,10.048,0,0,1,4.921,4.948c3.291,7.209,13.137,25.286,32.232,33.913-2.75,3.65-7.177,11.242-9.106,24-11.469-8.536-21.37-22.791-26.123-46.171a9.329,9.329,0,0,1-8.135-.225c-2.386-1.159-5.14-2.8-7.208-4.095a9.446,9.446,0,0,1-4.19-5.628c-.787-3.087-.324-5.8-.324-8.715l-9.3-2.881A3.307,3.307,0,0,1,1455.33,1145.061Z" transform="translate(-567.977 -384.971)" fill="#ffc5b2"/>
    <path id="Path_280" data-name="Path 280" d="M1594.3,1283.642c1.929-12.761,6.357-20.352,9.106-24,11.862,5.359,27.292,7.072,46.941.264a20.884,20.884,0,0,1,5.616-1.108c10.46-.613,44.93-1.732,73.452,7.691a22.165,22.165,0,0,1,13.37,12.171c7.716,17.706,20.208,58.031-14.471,78.388a85.987,85.987,0,0,0-8.369-15.838c5.585-9.42,7.239-22.285-2.671-39.039-7.226,19.512-10.616,47.983-11.325,60.583a27.083,27.083,0,0,0,2.122,12.119l.178.418a1.434,1.434,0,0,1-1.007,1.958c-19.522,4.386-39.827,3.194-45.893,2.693a2.5,2.5,0,0,1-2.231-1.911c-9.493-40-9.515-67.286-7.191-84.535C1643.048,1295.478,1615.893,1299.713,1594.3,1283.642Z" transform="translate(-649.804 -451.618)" fill="#06aff2"/>
    <path id="Path_281" data-name="Path 281" d="M1732.951,1308.837a.792.792,0,0,0,.784-.688c2.229-16.841,6.77-24.192,6.815-24.264a.792.792,0,0,0-1.338-.848c-.193.3-4.765,7.665-7.047,24.9a.792.792,0,0,0,.681.889A.845.845,0,0,0,1732.951,1308.837Z" transform="translate(-730.866 -465.887)" fill="#009ae2"/>
    <path id="Path_282" data-name="Path 282" d="M1823.283,1202.8s1.975,20.882,3.714,27.059a2.111,2.111,0,0,1-.995,2.411c-2.951,1.687-10.03,4.437-19.712-.308a4.391,4.391,0,0,1-2.438-4.134l.853-20.178Z" transform="translate(-773.02 -418.92)" fill="#ffc5b2"/>
    <path id="Path_283" data-name="Path 283" d="M1821.357,1206.374s-9.41,15.9-18.551,8.068S1821.357,1206.374,1821.357,1206.374Z" transform="translate(-771.319 -421.024)" fill="#ffad97"/>
    <path id="Path_284" data-name="Path 284" d="M1794.7,1137.954s-6.317,14.511-6.741,22.127-2.065,12.558,6.741,14.092,16.225-2.854,20.244-10.44c0,0,6.3-11.69,4.885-16.478S1794.7,1137.954,1794.7,1137.954Z" transform="translate(-763.445 -380.792)" fill="#ffc5b2"/>
    <path id="Path_285" data-name="Path 285" d="M1810.449,1135.671l-.5-.221a1.209,1.209,0,0,1-.591-1.66c1.242-2.4,3.663-7.9.535-9.181-4.03-1.653-20-4.908-23.44-10.573-3.311-5.444-.377-12.473,4.031-14.472a.607.607,0,0,1,.794.259l.367.695a.6.6,0,0,0,1.1-.113h0a.6.6,0,0,1,1.077-.154c1.059,1.695,3.918,4.443,11.562,5.853,10.864,2.005,18.047,6.4,18.226,13.909a.6.6,0,0,0,.926.494c.8-.489,2.086-.719,3.8.724,2.984,2.509,1.763,9.017-4.778,14.37a.594.594,0,0,0,.029.958c1.185.772,2.953,2.609-1.627,5.057-4.738,2.532-8.275,2.324-9.637,2.1a.6.6,0,0,1-.483-.719l1.454-6.6a.6.6,0,0,0-.584-.727Z" transform="translate(-761.954 -358.185)" fill="#131f2d"/>
    <path id="Path_286" data-name="Path 286" d="M1846.064,1180.489s2.41-9.269,6.565-6.67-2.156,10.386-5.5,10.733Z" transform="translate(-797.843 -401.611)" fill="#ffc5b2"/>
    <path id="Path_287" data-name="Path 287" d="M1502.688,1181.327a.792.792,0,0,0,.614-1.291c-.684-.842-6.755-8.265-9.094-9.586-.851-.481-1.359-.977-1.467-1.436a1.171,1.171,0,0,1,.106-.745l7.134,1.43,4.041,3.469a.792.792,0,0,0,1.032-1.2l-4.2-3.6a.789.789,0,0,0-.36-.175l-7.9-1.583a.792.792,0,0,0-.812.334,3.014,3.014,0,0,0-.586,2.44,4.08,4.08,0,0,0,2.229,2.451c1.76.994,6.837,6.983,8.644,9.206A.789.789,0,0,0,1502.688,1181.327Z" transform="translate(-589.14 -397.629)" fill="#ffad97"/>
    <path id="Path_288" data-name="Path 288" d="M1806.958,1485.262l-27.922.345,9.772-9.2a7.293,7.293,0,0,1,8.94-.838,21.126,21.126,0,0,1,4.964,4.424s17.417-6.365,25.861-20.607a85.99,85.99,0,0,1,8.369,15.838C1829.373,1479.67,1819.562,1483.164,1806.958,1485.262Z" transform="translate(-758.43 -569.798)" fill="#ffad97"/>
    <g id="Group_109" data-name="Group 109" transform="translate(906.048 855.394)">
      <path id="Path_289" data-name="Path 289" d="M1733.595,1521.866c-.054,0-.108,0-.163,0l-70.875-.076a3.139,3.139,0,1,1,.007-6.278l70.875.076a3.138,3.138,0,0,1,.156,6.274Z" transform="translate(-1594.124 -1458.195)" fill="#131f2d"/>
      <path id="Path_290" data-name="Path 290" d="M1505.7,1376.386h59.026a11.259,11.259,0,0,1,10.175,6.383l27.287,57.25h-73.353a6.837,6.837,0,0,1-6.359-4.278l-21.16-52.977A4.67,4.67,0,0,1,1505.7,1376.386Z" transform="translate(-1500.977 -1376.386)" fill="#131f2d"/>
      <ellipse id="Ellipse_8" data-name="Ellipse 8" cx="4.646" cy="7.487" rx="4.646" ry="7.487" transform="translate(35.12 25.107) rotate(-18.242)" fill="#ff636e"/>
    </g>
    <g id="Group_110" data-name="Group 110" transform="translate(619.527 996.971)">
      <path id="Path_291" data-name="Path 291" d="M807.913,1725.105c.043,0,.086,0,.129,0l56.218-.056a2.512,2.512,0,1,0-.006-5.023l-56.218.056a2.512,2.512,0,0,0-.123,5.021Z" transform="translate(-805.523 -1720.028)" fill="#131f2d"/>
    </g>
    <g id="Group_111" data-name="Group 111" transform="translate(676.09 945.649)">
      <path id="Path_292" data-name="Path 292" d="M966.76,1596.8c-.02.038-.039.077-.057.116l-23.654,51a2.512,2.512,0,1,0,4.558,2.113l23.654-51a2.512,2.512,0,0,0-4.5-2.229Z" transform="translate(-942.814 -1595.458)" fill="#131f2d"/>
    </g>
    <g id="Group_112" data-name="Group 112" transform="translate(714.022 1039.592)">
      <rect id="Rectangle_86" data-name="Rectangle 86" width="5.645" height="61.044" transform="translate(34.88 74.722) rotate(180)" fill="#657285"/>
      <path id="Rectangle_87" data-name="Rectangle 87" d="M0,0H49.439a0,0,0,0,1,0,0V1.23A2.444,2.444,0,0,1,47,3.674H2.444A2.444,2.444,0,0,1,0,1.23V0A0,0,0,0,1,0,0Z" transform="translate(56.777 75.899) rotate(180)" fill="#657285"/>
      <rect id="Rectangle_88" data-name="Rectangle 88" width="62.161" height="17.629" rx="8.815" transform="translate(0 0)" fill="#657285"/>
    </g>
    <path id="Path_293" data-name="Path 293" d="M1185,1757.884a49.129,49.129,0,0,1,17.819,7.6,4.7,4.7,0,0,1,2.074,4.493c-1.129,8.945-5.772,37.9-21.082,66.174a7.12,7.12,0,0,0-.683,4.885l2.66,12.378,4.933,4.625h-12.706l-8.459-22.894,3.617-1.144a6.844,6.844,0,0,0,4.78-6.408l.424-24.558a27.939,27.939,0,0,1,6.709-18.491l-20.292-.987Z" transform="translate(-397.253 -745.317)" fill="#ffad97"/>
    <path id="Path_294" data-name="Path 294" d="M1198.575,1968.837c1.157,1.514-12.454,3.513-19.331.2,0,0-9.532-16.586-9.532-25.125,0,0,.756-1.741,6.354-1.346,0,0,3.2,19.638,6.58,21.838s9.456.223,9.456.223S1196.868,1966.6,1198.575,1968.837Z" transform="translate(-400.143 -853.877)" fill="#1a0f91"/>
    <path id="Path_295" data-name="Path 295" d="M1171.03,1789.408c.108-.187,21.847-2.614,21.847-2.614a50.245,50.245,0,0,0,1.512,15.709c2.224,9.1,34.141,48.521,34.141,48.521l-3.347,10.609a53.83,53.83,0,0,0,30.542,1.837l-20.741-12.446s-19.411-66.148-31.3-77.949l-21.791-7.539Z" transform="translate(-400.918 -749.816)" fill="#ffc5b2"/>
    <path id="Path_296" data-name="Path 296" d="M1033.15,1730.057s-12.525,18.629-13.553,27.127,3.431,11.951,16.572,12.52,48.225.56,48.225.56l29.943-25.59s-21.822-7.787-27.495-9.989S1033.15,1730.057,1033.15,1730.057Z" transform="translate(-311.79 -728.954)" fill="#1a0f91"/>
    <path id="Path_297" data-name="Path 297" d="M1302.669,1990.113s-3.6,3.49-1.169,7.373c0,0,28.542,5.059,36.291,2.764,0,0-1.609-3.673-10.335-7.853l.644.494a1.042,1.042,0,0,1-.688,1.87C1321.661,1994.433,1309.761,1993.379,1302.669,1990.113Z" transform="translate(-477.138 -881.869)" fill="#1a0f91"/>
    <path id="Path_298" data-name="Path 298" d="M861.659,1747.911c-.208,1.028-20.542,90.076-25.7,112.651a4.082,4.082,0,0,0,4.34,4.876,4.2,4.2,0,0,0,3.944-3.267L869.681,1747.3Z" transform="translate(-203.836 -739.095)" fill="#657285"/>
    <path id="Path_299" data-name="Path 299" d="M753.681,2030.239c-9.8,0-14.13-.841-16.067-1.607a3.716,3.716,0,0,0,3.62,2.879h34.653a1.686,1.686,0,0,0,1.625-2.128C773.562,2029.7,765.172,2030.239,753.681,2030.239Z" transform="translate(-146.065 -904.519)" fill="#09005d"/>
    <path id="Path_300" data-name="Path 300" d="M777.37,2017.39a1.639,1.639,0,0,0-.283-.59c-2.64-3.37-7.942-8.663-15.156-8.561-10.567.149-14.251,1.3-22.463.065l-1.937,6.421a3.688,3.688,0,0,0-.059,1.915c1.938.766,6.272,1.607,16.067,1.607C765.031,2018.247,773.42,2017.708,777.37,2017.39Z" transform="translate(-145.924 -892.527)" fill="#1a0f91"/>
    <path id="Path_301" data-name="Path 301" d="M744.837,1991.6l-2.378,8.087s5.268,2.4,9.9.473l.91-7.007Z" transform="translate(-148.914 -882.745)" fill="#ffc5b2"/>
    <path id="Path_302" data-name="Path 302" d="M903.255,1997.919c-7.636,6.135-11.538,8.2-13.526,8.817a3.711,3.711,0,0,0,4.616-.034l27.013-21.7a1.68,1.68,0,0,0-.06-2.669C918.416,1985.048,912.212,1990.722,903.255,1997.919Z" transform="translate(-235.51 -877.292)" fill="#09005d"/>
    <path id="Path_303" data-name="Path 303" d="M916.1,1980.879a1.619,1.619,0,0,0-.589-.28c-4.158-.962-11.591-1.746-17.151,2.85-8.145,6.734-10.3,9.931-17.47,14.12l2.492,6.2a3.65,3.65,0,0,0,1.149,1.523c1.988-.619,5.891-2.682,13.526-8.817C907.015,1989.272,913.219,1983.6,916.1,1980.879Z" transform="translate(-230.313 -875.842)" fill="#1a0f91"/>
    <path id="Path_304" data-name="Path 304" d="M608.65,1767.957s58.645,4.788,70.675,10.452-9.818,85.039-9.818,85.039-3.275,1.576-10.563-.689c0,0,7.473-58.576,1.912-71.277l-63.5-10.386Z" transform="translate(-63.595 -751.24)" fill="#09005d"/>
    <path id="Path_305" data-name="Path 305" d="M866.747,1990.838c.545.5,5.827,11.15,5.827,11.15s5.881-1.272,7.08-4.994l-5.291-9.615Z" transform="translate(-221.997 -880.261)" fill="#ffc5b2"/>
    <path id="Path_306" data-name="Path 306" d="M536.411,1766.767a29.706,29.706,0,0,0-1.833,10.71,16.078,16.078,0,0,0,15.343,15.73l69.328,3.162a3.325,3.325,0,0,1,3.069,2.5c1.629,6.3,9.592,25.652,48.517,64.266a3.138,3.138,0,0,0,3.882.423l5.541-3.5a1.276,1.276,0,0,0,.42-1.724L640.313,1789.4a15.626,15.626,0,0,0-9.492-7.04l-59.089-15.1Z" transform="translate(-26.677 -750.54)" fill="#1a0f91"/>
    <path id="Path_307" data-name="Path 307" d="M824.685,1716.432l3.865-1.03,11.735-2.717a5.439,5.439,0,0,1,4.124.7l10.089,6.348-27.863-.047Z" transform="translate(-197.264 -718.657)" fill="#ffc5b2"/>
    <path id="Path_308" data-name="Path 308" d="M695.562,1509.164s-19.532,11.585-27.1,17.946l15.651,8.732s8.457-9.77,16.515-13.84Z" transform="translate(-105.401 -599.067)" fill="#ffc5b2"/>
    <path id="Path_309" data-name="Path 309" d="M535.974,1638.257s18.716,4.561,36.581,0c0,0,25-33.6,34.668-42.75,0,0,15.426,24.342,49.762,27.792l1.915-4.279s-27.335-12.6-35.75-31.962-11.795-27.619-19.451-32.67c-4.768-3.146-7.623-5.295-9.1-6.469a2.447,2.447,0,0,0-2.8-.178C583.672,1552.692,545.442,1578.875,535.974,1638.257Z" transform="translate(-27.499 -621.54)" fill="#06aff2"/>
    <path id="Path_310" data-name="Path 310" d="M690.642,1635.949a1.823,1.823,0,0,1-1.45-.715,75.4,75.4,0,0,1-9.506-16.854,1.826,1.826,0,0,1,3.409-1.308,73.011,73.011,0,0,0,8.994,15.941,1.826,1.826,0,0,1-1.447,2.937Z" transform="translate(-111.932 -661.829)" fill="#009ae2"/>
    <path id="Path_311" data-name="Path 311" d="M706.119,1526.357c-.662.677,3.739,11.724,9.1,4.548C715.222,1530.9,706.781,1525.679,706.119,1526.357Z" transform="translate(-127.507 -609.141)" fill="#ffad97"/>
    <path id="Path_312" data-name="Path 312" d="M735.423,1473.588c.233.337,7.174,26.5,7.174,26.5l-15.02,3.646-10.262-23.816S731.531,1467.947,735.423,1473.588Z" transform="translate(-134.129 -577.259)" fill="#ffc5b2"/>
    <path id="Path_313" data-name="Path 313" d="M712.138,1469.1l4.421,12.96a1.875,1.875,0,0,0,.233.465c.609.885,2.928,3.778,5.744,1.225,2.554-2.317,4.92-4.393,7.088-4.752a1.91,1.91,0,0,1,2.161,1.4,82.623,82.623,0,0,1,2.385,12.61,1.907,1.907,0,0,1-1.573,2.04,61.66,61.66,0,0,1-14.32,1.037,1.913,1.913,0,0,1-1.6-1.127c-1.394-3.134-5.666-12.643-7.266-15.109-1.5-2.314-5.245-2.29-6.816-2.167a1.88,1.88,0,0,1-1.4-.476c-1.36-1.218-3.94-4.319-.225-7.958a1.915,1.915,0,0,0-.015-2.758c-1.562-1.5-3.223-4.151-.558-7.388,2.709-3.29,6.232-2.724,8.385-1.912a1.914,1.914,0,0,0,2.312-.826,1.513,1.513,0,0,1,1.568-.713,1.884,1.884,0,0,0,2.031-1.91,5.712,5.712,0,0,1,4.474-5.912c6.565-1.967,10.579,4.4,10.933,9.121s-6.886,6.449-11.128,6.085c-3.226-.276-5.656,2.9-6.636,4.435A1.9,1.9,0,0,0,712.138,1469.1Z" transform="translate(-123.35 -562.782)" fill="#131f2d"/>
    <path id="Path_314" data-name="Path 314" d="M715.232,1525.088s-.969-8.2-4.372-8.639-6.748,2.327-3.41,6.96C711.6,1529.172,715.232,1525.088,715.232,1525.088Z" transform="translate(-127.517 -603.324)" fill="#ffc5b2"/>
    <path id="Path_315" data-name="Path 315" d="M1251.579,1747.526c.208,1.028,20.542,90.076,25.7,112.651a4.082,4.082,0,0,1-4.34,4.876,4.2,4.2,0,0,1-3.944-3.267l-25.436-114.867Z" transform="translate(-443.564 -738.868)" fill="#657285"/>
    <g id="Group_113" data-name="Group 113" transform="translate(502.685 1041.995)">
      <rect id="Rectangle_89" data-name="Rectangle 89" width="5.645" height="65.923" transform="translate(34.88 81.15) rotate(180)" fill="#657285"/>
      <path id="Rectangle_90" data-name="Rectangle 90" d="M0,0H49.439a0,0,0,0,1,0,0V1.231A2.444,2.444,0,0,1,47,3.674H2.444A2.444,2.444,0,0,1,0,1.23V0A0,0,0,0,1,0,0Z" transform="translate(56.777 82.327) rotate(180)" fill="#657285"/>
      <rect id="Rectangle_91" data-name="Rectangle 91" width="62.161" height="17.629" rx="8.815" transform="translate(0 0)" fill="#657285"/>
    </g>
    <path id="Path_316" data-name="Path 316" d="M1068.462,1627.692s14.585-13.888,21.765-23.087a19.519,19.519,0,0,0,3.3-17.565c-3.278-11.043-9.1-22.48-9.634-24.26-.814-2.729-17.168-2.615-17.168-2.615s-32.181,20.886-44.825,56.265l14.2,4.421s8.4-14.1,16.705-23.059c0,0-14.366,18.978-14.872,26.746Z" transform="translate(-313.23 -629.055)" fill="#06aff2"/>
    <path id="Path_317" data-name="Path 317" d="M1150.939,1526.354c-.171.567-4.439,14.718-4.773,15.011s-9.361.779-13.61-2.125l7.209-15.09Z" transform="translate(-378.295 -607.879)" fill="#ffc5b2"/>
    <path id="Path_318" data-name="Path 318" d="M1148.94,1526.3c.187.764,6.315,8.693,10.811,4.03C1163.767,1526.162,1148.94,1526.3,1148.94,1526.3Z" transform="translate(-387.928 -609.141)" fill="#ffad97"/>
    <path id="Path_319" data-name="Path 319" d="M1147.154,1460.581s7.984,2.5,14.273,13.073,2.891,16.073-1.933,17.249-12.15,1.779-20.582-4.631S1136.811,1457.709,1147.154,1460.581Z" transform="translate(-379.731 -570.35)" fill="#ffc5b2"/>
    <path id="Path_320" data-name="Path 320" d="M1128.389,1466.018s-7.358-15.654,7-17.239l3.612,2.036s4.4-9.5-4.67-12.954a18.5,18.5,0,0,0-24.175,13.642c-2.554,12.021.333,19.344,7,24.33s8.583-1.586,8.583-1.586-3.844-4.9-2.756-7.82,4.549.142,4.549.142Z" transform="translate(-364.581 -556.516)" fill="#131f2d"/>
    <path id="Path_321" data-name="Path 321" d="M1140.445,1504.865s-3.735-8.069-7.316-4.364,3.92,7.408,6.828,8.561Z" transform="translate(-378.074 -593.401)" fill="#ffc5b2"/>
    <path id="Path_322" data-name="Path 322" d="M1093.48,1709.027l-10.716-10.329-14.824,6.262s-14.756,2.286-23.2,0l-8.445-2.286-19.085-5.942-3,8.471a5.1,5.1,0,0,0,1.863,5.86,33.7,33.7,0,0,0,4.82,3c2.513,1.1,61.955-.76,61.955-.76Z" transform="translate(-308.535 -709.359)" fill="#ffc5b2"/>
    <path id="Path_323" data-name="Path 323" d="M1057.275,1469.025a3.3,3.3,0,0,0-2.5-5.3c-8.555-.5-21.275,2.089-24.923,20.653-4.11,20.912-7.083,31.456-10.971,33.633a3.32,3.32,0,0,0,.407,6.084c2.05.692,4.894.732,8.833-.544C1058.52,1513.714,1047.507,1481.152,1057.275,1469.025Z" transform="translate(-310.396 -572.319)" fill="#131f2d"/>
    <path id="Path_324" data-name="Path 324" d="M1104.829,1730.359c.047,0,.095,0,.143,0l62.162-.068a2.782,2.782,0,1,0-.006-5.564l-62.162.068a2.782,2.782,0,0,0-.137,5.561Z" transform="translate(-360.437 -725.821)" fill="#131f2d"/>
    <path id="Path_325" data-name="Path 325" d="M1274.684,1601.4h-51.769a9.867,9.867,0,0,0-8.924,5.658l-23.933,50.748h64.335a6,6,0,0,0,5.576-3.792l18.559-46.96A4.134,4.134,0,0,0,1274.684,1601.4Z" transform="translate(-412.107 -653.304)" fill="#131f2d"/>
    <path id="Path_326" data-name="Path 326" d="M1306.225,1657.159c-1.122,3.485-.293,6.87,1.851,7.56s4.792-1.576,5.914-5.061.293-6.87-1.851-7.56S1307.347,1653.673,1306.225,1657.159Z" transform="translate(-480.119 -683.04)" fill="#ff636e"/>
    <path id="Path_327" data-name="Path 327" d="M817.87,1744.057c-.26,1.077-25.1,94.228-31.394,117.843a4.235,4.235,0,1,0,8.192,2.149l31.245-120.2Z" transform="translate(-174.709 -737.062)" fill="#657285"/>
    <path id="Path_328" data-name="Path 328" d="M1291.639,1750.245c.26,1.077,25.1,94.228,31.394,117.843a4.235,4.235,0,1,1-8.192,2.149L1284.6,1750.245Z" transform="translate(-467.697 -740.825)" fill="#657285"/>
    <path id="Path_329" data-name="Path 329" d="M770.266,1729.722h249.77c3.491,0,6.539.826,7.412,2.009l3.487,4.729c1.255,1.7-2.434,3.359-7.456,3.348l-256.29-.515c-4.968-.01-8.592-1.648-7.379-3.333l3.033-4.213C763.7,1730.557,766.758,1729.722,770.266,1729.722Z" transform="translate(-158.978 -728.757)" fill="#657285"/>
  </g>
</svg>
