<svg xmlns="http://www.w3.org/2000/svg" xmlns:xlink="http://www.w3.org/1999/xlink" width="572.887" height="572.629" viewBox="0 0 572.887 572.629">
  <defs>
    <clipPath id="clip-path">
      <circle id="Ellipse_4" data-name="Ellipse 4" cx="120.96" cy="120.96" r="120.96" fill="none"/>
    </clipPath>
    <clipPath id="clip-path-2">
      <path id="Path_239" data-name="Path 239" d="M1596.651,1878.79c-45.268,9.6-93.365-9.987-120.286-43.945-10.951-13.813-130.864-60.28-134.769-78.694-13.506-63.683,134.948-150.607,198.631-164.112s150.466,71.186,163.972,134.869c6.026,28.414-26.955,73.408-39.734,97.121C1648.6,1853.461,1631.92,1871.31,1596.651,1878.79Z" transform="translate(-1340.733 -1590.604)" fill="none"/>
    </clipPath>
  </defs>
  <g id="About_Graphic_1" data-name="About Graphic 1" transform="translate(-445.107 -455.001)">
    <path id="Path_184" data-name="Path 184" d="M959.407,988.033c-14.729,15.182-27.908,24.107-38,30.844-98.41,65.709-210.9,46.77-245.683,40.3-56.113-10.444-103.481-17.812-144.178-54.58-92.476-83.549-87.978-257.837-17.315-365.8,8.379-12.8,78.934-117.387,191.671-132.124,2.757-.361,4.815-.566,6.617-.756,17.44-1.847,125.513-11.592,213.635,62.237a262.893,262.893,0,0,1,51.739,58.7C1046.726,733.159,1046.944,897.8,959.407,988.033Z" transform="translate(-13.135 -39.357)" fill="#eaf7fc"/>
    <g id="Group_80" data-name="Group 80" transform="translate(474.385 845.887)">
      <path id="Path_185" data-name="Path 185" d="M703.8,2457.939a.956.956,0,0,0,0-1.11l-6.74-9.488a50.7,50.7,0,0,0,3.724-16l10.227-5.539a.957.957,0,0,0,.488-1l-2.284-13.771a.956.956,0,0,0-.783-.786l-11.468-1.942a50.7,50.7,0,0,0-8.688-13.939l3.317-11.155a.956.956,0,0,0-.36-1.05l-11.353-8.123a.956.956,0,0,0-1.11,0l-9.488,6.74a50.685,50.685,0,0,0-16-3.724l-5.539-10.227a.955.955,0,0,0-1-.488l-13.772,2.283a.957.957,0,0,0-.786.784l-1.941,11.467a50.7,50.7,0,0,0-13.939,8.688l-11.155-3.317a.956.956,0,0,0-1.05.36l-8.123,11.353a.957.957,0,0,0,0,1.11l6.74,9.488a50.679,50.679,0,0,0-3.724,16l-10.227,5.54a.955.955,0,0,0-.488,1l2.284,13.772a.955.955,0,0,0,.784.786l11.467,1.942a50.7,50.7,0,0,0,8.688,13.939l-3.317,11.155a.956.956,0,0,0,.36,1.05l11.353,8.123a.956.956,0,0,0,1.11,0l9.488-6.74a50.7,50.7,0,0,0,16,3.724l5.539,10.227a.958.958,0,0,0,1,.488l13.772-2.284a.956.956,0,0,0,.786-.783l1.942-11.468a50.7,50.7,0,0,0,13.939-8.688l11.155,3.317a.955.955,0,0,0,1.05-.36Z" transform="translate(-588.269 -2366.328)" fill="#ff636e"/>
      <path id="Path_186" data-name="Path 186" d="M833.839,2627.041a14.024,14.024,0,1,1,2.061.021A14.048,14.048,0,0,1,833.839,2627.041Zm-5.789-22.2a10.759,10.759,0,1,0,7.842-2.51,10.857,10.857,0,0,0-1.6-.016A10.679,10.679,0,0,0,828.05,2604.845Z" transform="translate(-773.379 -2551.435)" fill="#fff" opacity="0.56"/>
      <path id="Path_187" data-name="Path 187" d="M756.36,2566.925a35.136,35.136,0,0,0,3.523-.4h0q.555-.092,1.106-.2a34.678,34.678,0,0,0,5.316-1.506l.07-.026.2-.076c.129-.049.258-.1.387-.15a.818.818,0,1,0-.6-1.522,32.9,32.9,0,0,1-36.6-8.638,32.668,32.668,0,0,1-7.945-16.541,33.323,33.323,0,0,1-.385-3.361,32.868,32.868,0,1,1,63.4,10.018.818.818,0,1,0,1.523.6A34.506,34.506,0,1,0,719.8,2534.6a35.332,35.332,0,0,0,.4,3.527,34.509,34.509,0,0,0,36.16,28.8Z" transform="translate(-692.842 -2471.054)" fill="#fff" opacity="0.56"/>
    </g>
    <g id="Group_81" data-name="Group 81" transform="translate(595.541 908.264)">
      <path id="Path_188" data-name="Path 188" d="M1258,2732.639a.64.64,0,0,0,0-.743l-4.51-6.349a33.921,33.921,0,0,0,2.492-10.7l6.843-3.707a.639.639,0,0,0,.326-.667l-1.528-9.215a.64.64,0,0,0-.524-.526l-7.674-1.3a33.906,33.906,0,0,0-5.813-9.327l2.219-7.464a.641.641,0,0,0-.241-.7l-7.6-5.436a.64.64,0,0,0-.743,0l-6.349,4.51a33.921,33.921,0,0,0-10.7-2.492l-3.707-6.843a.64.64,0,0,0-.667-.327l-9.216,1.529a.639.639,0,0,0-.526.524l-1.3,7.674a33.9,33.9,0,0,0-9.327,5.813l-7.464-2.219a.641.641,0,0,0-.7.241l-5.436,7.6a.64.64,0,0,0,0,.742l4.51,6.349a33.905,33.905,0,0,0-2.492,10.7l-6.843,3.707a.639.639,0,0,0-.326.667l1.528,9.216a.64.64,0,0,0,.524.526l7.673,1.3a33.913,33.913,0,0,0,5.814,9.327l-2.22,7.465a.64.64,0,0,0,.241.7l7.6,5.435a.64.64,0,0,0,.743,0l6.349-4.51a33.927,33.927,0,0,0,10.7,2.492l3.706,6.843a.641.641,0,0,0,.667.327l9.215-1.529a.639.639,0,0,0,.526-.524l1.3-7.673a33.927,33.927,0,0,0,9.327-5.814l7.465,2.219a.639.639,0,0,0,.7-.241Z" transform="translate(-1180.692 -2671.337)" fill="#ff636e"/>
      <path id="Path_189" data-name="Path 189" d="M1344.345,2845.311a9.526,9.526,0,1,1,1.417.014A9.743,9.743,0,0,1,1344.345,2845.311Zm-6.216-10.108a7.03,7.03,0,0,0,6.424,7.59h0a7.031,7.031,0,0,0,1.165-14.014,7.121,7.121,0,0,0-1.032-.01A7.043,7.043,0,0,0,1338.129,2835.2Z" transform="translate(-1303.901 -2794.551)" fill="#fff" opacity="0.56"/>
      <path id="Path_190" data-name="Path 190" d="M1290.454,2803.473a24.006,24.006,0,0,0,7.085-1.547l.2-.08a1.263,1.263,0,1,0-.929-2.349,21.387,21.387,0,0,1-4.366,1.208h0l-.246.039a21.075,21.075,0,0,1-10.374-.975,21.406,21.406,0,0,1-5.085-2.639l-.039-.027-.118-.084a21.139,21.139,0,0,1-8.609-13.823,21.452,21.452,0,0,1-.249-2.175,21.278,21.278,0,0,1,42.229-4.786,21.451,21.451,0,0,1,.246,2.147,21.213,21.213,0,0,1-1.433,9.124,1.246,1.246,0,0,0-.086.543,1.264,1.264,0,0,0,2.437.383,23.806,23.806,0,1,0-45.915-7.256,24.265,24.265,0,0,0,.278,2.433A23.838,23.838,0,0,0,1290.454,2803.473Z" transform="translate(-1247.882 -2738.609)" fill="#fff" opacity="0.56"/>
    </g>
    <g id="Group_82" data-name="Group 82" transform="translate(857.019 480.493)">
      <path id="Path_191" data-name="Path 191" d="M2462.372,661.415a.956.956,0,0,0,.829.738l11.571,1.254a50.7,50.7,0,0,0,9.5,13.4l-2.643,11.326a.957.957,0,0,0,.422,1.027l11.818,7.43a.956.956,0,0,0,1.108-.064l9.063-7.29a50.7,50.7,0,0,0,16.193,2.751l6.144,9.884a.956.956,0,0,0,1.025.428l13.61-3.1a.956.956,0,0,0,.738-.829L2543,686.8a50.685,50.685,0,0,0,13.4-9.5l11.327,2.643a.956.956,0,0,0,1.026-.422l7.431-11.818a.957.957,0,0,0-.064-1.108l-7.29-9.062a50.681,50.681,0,0,0,2.75-16.193l9.884-6.144a.956.956,0,0,0,.427-1.025l-3.1-13.611a.956.956,0,0,0-.829-.738l-11.571-1.254a50.684,50.684,0,0,0-9.5-13.4l2.644-11.326a.957.957,0,0,0-.422-1.027l-11.818-7.431a.956.956,0,0,0-1.108.064l-9.063,7.29a50.7,50.7,0,0,0-16.193-2.751l-6.144-9.884a.956.956,0,0,0-1.024-.428l-13.611,3.1a.956.956,0,0,0-.738.829l-1.254,11.57a50.692,50.692,0,0,0-13.4,9.5l-11.326-2.643a.956.956,0,0,0-1.027.422l-7.43,11.818a.956.956,0,0,0,.064,1.108l7.29,9.062a50.709,50.709,0,0,0-2.751,16.193l-9.884,6.144a.957.957,0,0,0-.427,1.025Z" transform="translate(-2459.246 -579.653)" fill="#ff636e"/>
      <path id="Path_192" data-name="Path 192" d="M2694.913,814.862a14.025,14.025,0,1,1-1.383,1.528A14.048,14.048,0,0,1,2694.913,814.862Zm20.445,10.4a10.758,10.758,0,1,0-3.326,7.533,10.973,10.973,0,0,0,1.071-1.184A10.681,10.681,0,0,0,2715.359,825.261Z" transform="translate(-2643.268 -763.676)" fill="#fff" opacity="0.56"/>
      <path id="Path_193" data-name="Path 193" d="M2607.044,723.839a35.2,35.2,0,0,0-2.036,2.9h0q-.3.476-.583.962a34.729,34.729,0,0,0-2.4,4.976l-.028.07-.075.2c-.049.129-.1.259-.144.389a.818.818,0,0,0,.265.925.829.829,0,0,0,.224.124.819.819,0,0,0,1.049-.489,32.905,32.905,0,0,1,30.751-21.647,32.666,32.666,0,0,1,17.646,5.034,33.255,33.255,0,0,1,2.769,1.942A32.868,32.868,0,1,1,2604.915,760a.818.818,0,1,0-1.459.741,34.506,34.506,0,1,0,52.033-42.808,35.153,35.153,0,0,0-2.906-2.039,34.51,34.51,0,0,0-45.538,7.941Z" transform="translate(-2572.587 -683.813)" fill="#fff" opacity="0.56"/>
    </g>
    <g id="Group_91" data-name="Group 91" transform="translate(454.444 459.762)">
      <g id="Group_83" data-name="Group 83" transform="translate(30.119 366.648)">
        <path id="Path_194" data-name="Path 194" d="M815.833,2358.219a2.046,2.046,0,0,1-1.961-2.128c.09-2.194.086-4.423-.012-6.629a2.046,2.046,0,0,1,1.914-2.132l.04,0a2.046,2.046,0,0,1,2.134,1.954c.1,2.32.107,4.668.013,6.977a2.046,2.046,0,0,1-1.912,1.958A1.979,1.979,0,0,1,815.833,2358.219Zm-3.185-19.455c-.4-2.17-.891-4.343-1.468-6.461a2.046,2.046,0,1,1,3.948-1.075c.608,2.228,1.128,4.516,1.546,6.8a2.046,2.046,0,0,1-1.644,2.381,2.171,2.171,0,0,1-.241.03A2.047,2.047,0,0,1,812.648,2338.765Zm-5.014-16.622c-.868-2.021-1.834-4.029-2.873-5.969a2.046,2.046,0,0,1,3.607-1.931c1.094,2.043,2.112,4.158,3.025,6.287a2.046,2.046,0,1,1-3.76,1.614Zm-8.605-15.083c-1.3-1.778-2.691-3.521-4.136-5.179a2.046,2.046,0,0,1,3.085-2.688c1.522,1.747,2.986,3.582,4.354,5.453a2.046,2.046,0,0,1-3.3,2.415Zm-11.751-12.79c-1.658-1.442-3.4-2.833-5.181-4.135a2.046,2.046,0,1,1,2.415-3.3c1.872,1.369,3.707,2.833,5.451,4.35a2.046,2.046,0,0,1-2.685,3.087Zm-14.288-9.871c-1.938-1.041-3.945-2.012-5.966-2.885a2.046,2.046,0,1,1,1.623-3.756c2.126.919,4.239,1.941,6.279,3.037a2.046,2.046,0,0,1-1.937,3.6Zm-75.968-.952a2.046,2.046,0,0,1,.843-2.769c2.043-1.089,4.161-2.1,6.295-3.015a2.046,2.046,0,1,1,1.607,3.762c-2.026.865-4.037,1.829-5.976,2.864a2.045,2.045,0,0,1-2.768-.843Zm59.857-5.5c-2.12-.584-4.292-1.083-6.454-1.482a2.046,2.046,0,1,1,.744-4.024c2.277.421,4.564.946,6.8,1.561a2.046,2.046,0,1,1-1.086,3.945Zm-43.452-1.486a2.046,2.046,0,0,1,1.441-2.509c2.234-.6,4.524-1.119,6.806-1.533a2.046,2.046,0,1,1,.729,4.026c-2.168.393-4.345.883-6.468,1.457a2.068,2.068,0,0,1-.406.067A2.047,2.047,0,0,1,713.428,2276.459Zm26.306-1.205c-2.2-.094-4.425-.1-6.626,0a2.046,2.046,0,0,1-.217-4.086l.043,0c2.317-.1,4.664-.1,6.975,0a2.046,2.046,0,0,1,.044,4.086A2.2,2.2,0,0,1,739.734,2275.254Z" transform="translate(-684.769 -2271.091)" fill="#d5d6da"/>
        <path id="Path_195" data-name="Path 195" d="M640.218,2351.708a2.035,2.035,0,0,0,1.14-.439c.826-.656,1.68-1.305,2.537-1.931a2.046,2.046,0,1,0-2.412-3.3c-.9.658-1.8,1.341-2.669,2.031a2.046,2.046,0,0,0,1.4,3.644Z" transform="translate(-638.04 -2330.392)" fill="#d5d6da"/>
      </g>
      <g id="Group_84" data-name="Group 84" transform="translate(0 435.407)">
        <path id="Path_196" data-name="Path 196" d="M494.372,2614.64a2.046,2.046,0,0,0,1.9-1.847c.1-1.05.225-2.115.369-3.167a2.046,2.046,0,1,0-4.054-.558c-.152,1.106-.283,2.229-.389,3.334a2.045,2.045,0,0,0,2.169,2.237Z" transform="translate(-491.901 -2607.302)" fill="#d5d6da"/>
        <path id="Path_197" data-name="Path 197" d="M573.49,2756.9a2.046,2.046,0,0,1-.059-4.092c2.151-.031,4.334-.154,6.513-.366a2.046,2.046,0,0,1,.4,4.073q-1.416.138-2.826.228C576.175,2756.83,574.821,2756.884,573.49,2756.9Zm15.387-3.734a2.045,2.045,0,0,1,1.519-2.462c2.111-.5,4.223-1.1,6.278-1.769a2.045,2.045,0,1,1,1.274,3.887c-2.164.709-4.388,1.335-6.609,1.862a2.068,2.068,0,0,1-.345.052A2.046,2.046,0,0,1,588.877,2753.168Zm-26.519,3.13c-2.259-.279-4.537-.658-6.771-1.128a2.046,2.046,0,1,1,.842-4c2.122.447,4.285.807,6.43,1.071a2.046,2.046,0,0,1-.118,4.072A2.01,2.01,0,0,1,562.358,2756.3Zm43.19-8.606a2.045,2.045,0,0,1,.941-2.736c1.946-.95,3.875-2,5.733-3.105a2.046,2.046,0,0,1,2.1,3.512c-1.957,1.169-3.988,2.269-6.037,3.27a2.043,2.043,0,0,1-2.736-.941Zm-60.68,4.441c-2.141-.768-4.279-1.639-6.356-2.588a2.046,2.046,0,1,1,1.7-3.721c1.972.9,4,1.729,6.036,2.458a2.046,2.046,0,1,1-1.382,3.852Zm-16.153-7.9c-1.926-1.221-3.823-2.537-5.638-3.912a2.046,2.046,0,1,1,2.471-3.261c1.725,1.306,3.528,2.557,5.358,3.718a2.046,2.046,0,0,1-2.19,3.456ZM514.668,2733c-1.615-1.612-3.181-3.311-4.652-5.047a2.046,2.046,0,0,1,3.122-2.646c1.4,1.651,2.885,3.264,4.421,4.8a2.046,2.046,0,0,1-2.89,2.9ZM503.4,2718.973c-1.224-1.926-2.379-3.926-3.434-5.946a2.046,2.046,0,1,1,3.627-1.894c1,1.918,2.1,3.817,3.262,5.647a2.046,2.046,0,1,1-3.454,2.194ZM495.5,2702.8c-.767-2.143-1.453-4.347-2.038-6.552a2.046,2.046,0,0,1,3.955-1.05c.556,2.094,1.207,4.188,1.936,6.224a2.046,2.046,0,1,1-3.852,1.378Zm-4.161-17.493c-.208-1.665-.368-3.356-.474-5.027q-.058-.908-.095-1.812a2.023,2.023,0,0,1,1.959-2.129,2.045,2.045,0,0,1,2.13,1.959q.036.858.09,1.722c.1,1.589.252,3.2.45,4.779a2.046,2.046,0,0,1-1.776,2.284c-.042,0-.084.01-.126.012A2.045,2.045,0,0,1,491.334,2685.311Z" transform="translate(-490.764 -2662.222)" fill="#d5d6da"/>
        <path id="Path_198" data-name="Path 198" d="M1125.817,2960.678a2.039,2.039,0,0,0,1.149-.446c.864-.693,1.73-1.417,2.573-2.153a2.046,2.046,0,1,0-2.689-3.084c-.8.7-1.624,1.387-2.444,2.045a2.046,2.046,0,0,0,1.411,3.637Z" transform="translate(-994.21 -2883.487)" fill="#d5d6da"/>
      </g>
      <g id="Group_85" data-name="Group 85" transform="translate(168.473 435.572)">
        <path id="Path_199" data-name="Path 199" d="M1632.133,2916.708a1.263,1.263,0,0,0,1.151-.983c.236-1.046.445-2.114.618-3.173a1.264,1.264,0,0,0-2.494-.408c-.165,1.01-.363,2.027-.589,3.026a1.263,1.263,0,0,0,1.313,1.539Z" transform="translate(-1566.115 -2849.121)" fill="#d5d6da"/>
        <path id="Path_200" data-name="Path 200" d="M1381.7,2666.058a1.263,1.263,0,0,1-1.214-1.311,52.6,52.6,0,0,0-.067-5.3q-.035-.556-.083-1.115a1.264,1.264,0,0,1,1.153-1.365,1.308,1.308,0,0,1,1.366,1.154q.049.585.087,1.167a54.853,54.853,0,0,1,.07,5.558,1.263,1.263,0,0,1-1.181,1.213C1381.791,2666.059,1381.748,2666.059,1381.7,2666.058Zm-2.293-14.077a52.411,52.411,0,0,0-1.7-6.187,1.264,1.264,0,0,1,2.391-.817,54.784,54.784,0,0,1,1.778,6.487,1.264,1.264,0,0,1-.978,1.5,1.3,1.3,0,0,1-.18.024A1.263,1.263,0,0,1,1379.41,2651.981Zm-4.147-12.119a51.872,51.872,0,0,0-3.166-5.582,1.264,1.264,0,0,1,2.117-1.381,54.522,54.522,0,0,1,3.32,5.854,1.264,1.264,0,1,1-2.271,1.108Zm-7-10.73a52.142,52.142,0,0,0-4.434-4.636,1.264,1.264,0,0,1,1.715-1.857,54.881,54.881,0,0,1,4.651,4.862,1.264,1.264,0,0,1-1.931,1.631Zm-9.405-8.7a52.661,52.661,0,0,0-5.428-3.421,1.264,1.264,0,0,1,1.215-2.216,55.3,55.3,0,0,1,5.689,3.585,1.264,1.264,0,0,1-1.476,2.052Zm-11.231-6.15a51.9,51.9,0,0,0-6.093-1.991,1.264,1.264,0,0,1,.635-2.447,54.422,54.422,0,0,1,6.39,2.088,1.264,1.264,0,0,1-.387,2.436A1.251,1.251,0,0,1,1347.63,2614.285Zm-12.389-3.215a51.927,51.927,0,0,0-6.4-.435,1.264,1.264,0,0,1,.016-2.529,54.853,54.853,0,0,1,6.711.457,1.264,1.264,0,0,1-.082,2.514A1.23,1.23,0,0,1,1335.241,2611.071Zm-20.651.129a1.262,1.262,0,0,1,.928-1.526,54.9,54.9,0,0,1,5.744-1.078c.294-.041.586-.077.88-.112a1.264,1.264,0,0,1,.29,2.511c-.275.031-.55.066-.83.1a52.283,52.283,0,0,0-5.485,1.028,1.222,1.222,0,0,1-.22.033A1.263,1.263,0,0,1,1314.59,2611.2Z" transform="translate(-1314.553 -2608.107)" fill="#d5d6da"/>
      </g>
      <g id="Group_86" data-name="Group 86" transform="translate(135.081 515.779)">
        <path id="Path_201" data-name="Path 201" d="M1201.286,3029.189a54.986,54.986,0,0,1-6.614-.066,1.264,1.264,0,1,1,.179-2.521,52.236,52.236,0,0,0,6.309.063,1.264,1.264,0,0,1,.144,2.523Zm5.119-1.761a1.263,1.263,0,0,1,1.031-1.459,52.817,52.817,0,0,0,6.147-1.443,1.264,1.264,0,0,1,.724,2.422,55.2,55.2,0,0,1-6.442,1.51,1.3,1.3,0,0,1-.136.016A1.263,1.263,0,0,1,1206.4,3027.427Zm-18.3.824a54.706,54.706,0,0,1-6.4-1.663,1.264,1.264,0,0,1,.782-2.4,52.345,52.345,0,0,0,6.109,1.588,1.263,1.263,0,1,1-.487,2.479Zm30.748-4.237a1.263,1.263,0,0,1,.65-1.664,51.907,51.907,0,0,0,5.616-2.883,1.264,1.264,0,1,1,1.289,2.174,54.1,54.1,0,0,1-5.89,3.024,1.28,1.28,0,0,1-.427.1A1.264,1.264,0,0,1,1218.857,3024.015Zm-43.3.145a55.056,55.056,0,0,1-5.815-3.155,1.264,1.264,0,1,1,1.338-2.145,51.986,51.986,0,0,0,5.546,3.008,1.264,1.264,0,0,1-1.069,2.292Zm-11.209-6.986a55.3,55.3,0,0,1-4.893-4.455,1.263,1.263,0,1,1,1.811-1.762,52.775,52.775,0,0,0,4.669,4.249,1.264,1.264,0,0,1-1.586,1.968Zm-9.214-9.469a54.563,54.563,0,0,1-3.683-5.5,1.264,1.264,0,0,1,2.182-1.276,51.679,51.679,0,0,0,3.512,5.245,1.264,1.264,0,0,1-2.011,1.532Z" transform="translate(-1151.275 -3000.302)" fill="#d5d6da"/>
        <path id="Path_202" data-name="Path 202" d="M1537.078,3069.96a1.26,1.26,0,0,0,.692-.262c.855-.661,1.7-1.352,2.5-2.05a1.264,1.264,0,0,0-1.661-1.905c-.764.667-1.566,1.325-2.382,1.957a1.264,1.264,0,0,0,.854,2.26Z" transform="translate(-1457.108 -3052.114)" fill="#d5d6da"/>
      </g>
      <g id="Group_87" data-name="Group 87" transform="translate(405.99 84.096)">
        <path id="Path_203" data-name="Path 203" d="M2476.516,998.316a2.046,2.046,0,0,1,2.893-.054c1.582,1.523,3.252,3,4.966,4.39a2.045,2.045,0,0,1,.325,2.846l-.024.031a2.047,2.047,0,0,1-2.878.3c-1.8-1.463-3.563-3.018-5.228-4.621a2.046,2.046,0,0,1-.054-2.892Zm16.667,10.528c1.886,1.143,3.84,2.216,5.808,3.189a2.046,2.046,0,1,1-1.815,3.667c-2.07-1.024-4.126-2.153-6.112-3.355a2.046,2.046,0,0,1-.69-2.81,2.008,2.008,0,0,1,.138-.2A2.046,2.046,0,0,1,2493.184,1008.844Zm15.761,7.28c2.088.692,4.231,1.3,6.372,1.812a2.046,2.046,0,0,1-.949,3.98c-2.254-.537-4.512-1.18-6.71-1.908a2.046,2.046,0,1,1,1.287-3.884Zm16.994,3.572c2.192.208,4.419.323,6.62.343a2.046,2.046,0,0,1-.037,4.092c-2.316-.021-4.661-.143-6.968-.361a2.046,2.046,0,0,1,.386-4.074Zm17.366-.3c2.179-.283,4.376-.664,6.531-1.132a2.046,2.046,0,1,1,.868,4c-2.267.492-4.579.893-6.872,1.191a2.046,2.046,0,1,1-.527-4.057Zm16.866-4.138c2.065-.759,4.124-1.616,6.117-2.548a2.046,2.046,0,0,1,1.733,3.707c-2.1.981-4.266,1.883-6.438,2.682a2.046,2.046,0,0,1-1.412-3.841Zm51.125-56.2a2.046,2.046,0,0,1,1.512,2.467c-.541,2.251-1.187,4.508-1.922,6.71A2.046,2.046,0,0,1,2607,966.94c.7-2.09,1.311-4.234,1.824-6.371a2.043,2.043,0,0,1,2.467-1.511Zm-35.606,48.428c1.844-1.2,3.658-2.492,5.392-3.845a2.046,2.046,0,1,1,2.517,3.227c-1.827,1.424-3.737,2.786-5.679,4.049a2.046,2.046,0,1,1-2.23-3.43Zm29.948-31.519a2.046,2.046,0,0,1,.92,2.743c-1.031,2.072-2.165,4.127-3.369,6.109a2.046,2.046,0,1,1-3.5-2.126c1.145-1.883,2.223-3.836,3.2-5.805a2.022,2.022,0,0,1,.22-.348A2.046,2.046,0,0,1,2605.636,975.966Zm-16.556,20.479c1.528-1.58,3.008-3.247,4.4-4.955a2.046,2.046,0,0,1,3.2,2.549l-.027.034c-1.463,1.8-3.021,3.554-4.629,5.217a2.046,2.046,0,0,1-3.086-2.678C2588.981,996.554,2589.029,996.5,2589.08,996.446Z" transform="translate(-2475.944 -944.784)" fill="#d5d6da"/>
        <path id="Path_204" data-name="Path 204" d="M3135.07,890.278a2.035,2.035,0,0,0-.428,1.144c-.057,1.053-.138,2.123-.239,3.18a2.046,2.046,0,1,0,4.073.389c.106-1.111.191-2.236.251-3.345a2.046,2.046,0,0,0-3.657-1.368Z" transform="translate(-2999.734 -889.489)" fill="#d5d6da"/>
      </g>
      <g id="Group_88" data-name="Group 88" transform="translate(381.661 0)">
        <path id="Path_205" data-name="Path 205" d="M3032.425,603.415a2.046,2.046,0,0,0,.117,2.65c.719.772,1.434,1.572,2.124,2.377a2.046,2.046,0,1,0,3.107-2.662c-.727-.848-1.479-1.691-2.236-2.5a2.047,2.047,0,0,0-2.892-.1A2.021,2.021,0,0,0,3032.425,603.415Z" transform="translate(-2893.947 -577.196)" fill="#d5d6da"/>
        <path id="Path_206" data-name="Path 206" d="M2382.232,506.577a2.046,2.046,0,1,1,3.1,2.671c-1.4,1.629-2.76,3.344-4.049,5.116a2.046,2.046,0,0,1-3.31-2.407q.837-1.151,1.705-2.265C2380.5,508.633,2381.363,507.585,2382.232,506.577Zm-7.418,13.989a2.045,2.045,0,0,1,.834,2.77c-1.026,1.911-1.983,3.886-2.844,5.87a2.046,2.046,0,1,1-3.754-1.627c.905-2.089,1.912-4.168,2.993-6.179a2.042,2.042,0,0,1,2.77-.834Zm15.257-21.916c1.707-1.5,3.5-2.958,5.338-4.317a2.046,2.046,0,1,1,2.436,3.287c-1.742,1.291-3.447,2.67-5.067,4.1a2.046,2.046,0,0,1-2.968-2.791A2.08,2.08,0,0,1,2390.071,498.65Zm-22.224,38.02a2.045,2.045,0,0,1,1.422,2.519c-.581,2.087-1.08,4.223-1.482,6.349a2.046,2.046,0,0,1-4.021-.76c.424-2.239.949-4.49,1.561-6.686a2.043,2.043,0,0,1,2.52-1.422Zm36.946-48.34c2-1.092,4.066-2.114,6.154-3.037a2.046,2.046,0,0,1,1.655,3.742c-1.983.877-3.949,1.848-5.845,2.885a2.046,2.046,0,1,1-1.964-3.59Zm16.629-6.841c2.191-.631,4.435-1.176,6.668-1.622a2.046,2.046,0,1,1,.8,4.013c-2.122.424-4.254.942-6.336,1.541a2.046,2.046,0,1,1-1.132-3.932Zm17.725-3.055c2.278-.139,4.587-.183,6.862-.131a2.046,2.046,0,1,1-.092,4.091c-2.162-.049-4.356-.007-6.521.125a2.046,2.046,0,1,1-.249-4.084Zm17.969.884c2.253.363,4.517.826,6.728,1.377a2.046,2.046,0,1,1-.99,3.97c-2.1-.523-4.248-.963-6.389-1.307a2.046,2.046,0,1,1,.651-4.039Zm17.345,4.814c2.112.848,4.216,1.8,6.254,2.823a2.046,2.046,0,1,1-1.838,3.655c-1.936-.974-3.934-1.876-5.941-2.682a2.046,2.046,0,1,1,1.525-3.8Zm15.847,8.5c1.384.949,2.755,1.952,4.075,2.982q.718.559,1.419,1.131a2.023,2.023,0,0,1,.292,2.878,2.046,2.046,0,0,1-2.879.293q-.667-.543-1.348-1.076c-1.255-.979-2.559-1.932-3.874-2.835a2.046,2.046,0,0,1-.53-2.844c.024-.035.049-.069.075-.1A2.046,2.046,0,0,1,2490.307,492.627Z" transform="translate(-2362.351 -478.282)" fill="#d5d6da"/>
        <path id="Path_207" data-name="Path 207" d="M2357.51,849.12a2.04,2.04,0,0,0-.429,1.155c-.055,1.106-.088,2.235-.1,3.354a2.046,2.046,0,1,0,4.092.035c.009-1.063.04-2.135.092-3.185a2.046,2.046,0,0,0-3.658-1.358Z" transform="translate(-2356.984 -772.652)" fill="#d5d6da"/>
      </g>
      <g id="Group_89" data-name="Group 89" transform="translate(320.706 152.991)">
        <path id="Path_208" data-name="Path 208" d="M2059.2,1257.261a1.264,1.264,0,0,0-.029,1.514c.626.871,1.286,1.735,1.964,2.568a1.264,1.264,0,1,0,1.96-1.595c-.646-.794-1.276-1.617-1.873-2.449a1.262,1.262,0,0,0-2.022-.039Z" transform="translate(-2058.929 -1250.555)" fill="#d5d6da"/>
        <path id="Path_209" data-name="Path 209" d="M2090.442,1240.313a1.263,1.263,0,0,1,1.786-.038,52.612,52.612,0,0,0,4.011,3.468q.439.343.889.678a1.264,1.264,0,0,1,.256,1.768,1.309,1.309,0,0,1-1.77.256q-.469-.352-.93-.71a54.86,54.86,0,0,1-4.2-3.637,1.264,1.264,0,0,1-.123-1.688C2090.384,1240.377,2090.413,1240.345,2090.442,1240.313Zm12.053,7.627a52.331,52.331,0,0,0,5.754,2.837,1.264,1.264,0,0,1-.976,2.331,54.8,54.8,0,0,1-6.032-2.974,1.264,1.264,0,1,1,1.254-2.194Zm11.818,4.94a51.858,51.858,0,0,0,6.277,1.336,1.264,1.264,0,0,1-.372,2.5,54.56,54.56,0,0,1-6.583-1.4,1.265,1.265,0,0,1-.879-1.557,1.28,1.28,0,0,1,.22-.437A1.266,1.266,0,0,1,2114.313,1252.88Zm12.671,1.886a52.155,52.155,0,0,0,6.411-.241,1.264,1.264,0,0,1,.252,2.515,54.809,54.809,0,0,1-6.724.252,1.264,1.264,0,1,1,.061-2.526Zm12.747-1.265a52.653,52.653,0,0,0,6.16-1.79,1.264,1.264,0,1,1,.852,2.379,55.278,55.278,0,0,1-6.457,1.877,1.264,1.264,0,0,1-.555-2.466Zm12.053-4.321a51.832,51.832,0,0,0,5.532-3.236,1.264,1.264,0,0,1,1.409,2.1,54.405,54.405,0,0,1-5.8,3.395,1.264,1.264,0,0,1-1.138-2.257Zm10.626-7.134a51.926,51.926,0,0,0,4.572-4.5,1.264,1.264,0,0,1,1.881,1.69,54.734,54.734,0,0,1-4.8,4.717,1.264,1.264,0,1,1-1.658-1.908Zm13.608-15.534a1.263,1.263,0,0,1,.526,1.707,54.983,54.983,0,0,1-3.005,5.012c-.165.247-.332.49-.5.732a1.264,1.264,0,0,1-2.071-1.449c.159-.227.316-.456.472-.691a52.292,52.292,0,0,0,2.87-4.785,1.283,1.283,0,0,1,.121-.187A1.264,1.264,0,0,1,2176.019,1226.511Z" transform="translate(-2083.718 -1226.365)" fill="#d5d6da"/>
      </g>
      <g id="Group_90" data-name="Group 90" transform="translate(310.694 74.831)">
        <path id="Path_210" data-name="Path 210" d="M2025.713,864.551a55.051,55.051,0,0,1,4.439-4.9,1.264,1.264,0,1,1,1.767,1.807,52.318,52.318,0,0,0-4.234,4.677,1.264,1.264,0,0,1-1.983-1.567Zm-2.079,5a1.263,1.263,0,0,1,.407,1.739,52.829,52.829,0,0,0-3,5.556,1.264,1.264,0,0,1-2.292-1.066,55.227,55.227,0,0,1,3.145-5.822,1.241,1.241,0,0,1,.078-.113A1.264,1.264,0,0,1,2023.634,869.55Zm11.524-14.234a54.786,54.786,0,0,1,5.494-3.687,1.264,1.264,0,0,1,1.279,2.18,52.4,52.4,0,0,0-5.242,3.516,1.263,1.263,0,1,1-1.531-2.01Zm-17.236,25.814a1.264,1.264,0,0,1,.814,1.591,51.875,51.875,0,0,0-1.57,6.114,1.264,1.264,0,1,1-2.481-.478,54.2,54.2,0,0,1,1.647-6.413,1.263,1.263,0,0,1,1.591-.814Zm28.629-32.49a54.933,54.933,0,0,1,6.219-2.256,1.264,1.264,0,0,1,.717,2.424,52.006,52.006,0,0,0-5.931,2.152,1.264,1.264,0,0,1-1-2.32Zm12.664-3.749a55.279,55.279,0,0,1,6.579-.7,1.263,1.263,0,0,1,.117,2.524,52.774,52.774,0,0,0-6.277.673,1.264,1.264,0,0,1-.419-2.493Zm13.2-.609a54.623,54.623,0,0,1,6.559.9,1.264,1.264,0,0,1-.493,2.479,51.694,51.694,0,0,0-6.254-.853,1.263,1.263,0,0,1-1.166-1.355,1.247,1.247,0,0,1,.262-.682A1.263,1.263,0,0,1,2072.414,844.281Z" transform="translate(-2013.703 -844.184)" fill="#d5d6da"/>
        <path id="Path_211" data-name="Path 211" d="M2010.359,1087.288a1.257,1.257,0,0,0-.264.691c-.073,1.079-.114,2.165-.123,3.228a1.264,1.264,0,1,0,2.528.021c.008-1.014.048-2.05.117-3.08a1.264,1.264,0,0,0-2.258-.861Z" transform="translate(-2009.973 -1037.183)" fill="#d5d6da"/>
      </g>
    </g>
    <g id="Group_92" data-name="Group 92" transform="translate(779.028 548.303)">
      <path id="Path_212" data-name="Path 212" d="M2079.982,965.937a.64.64,0,0,0,.555.494l7.742.839a33.934,33.934,0,0,0,6.354,8.968l-1.768,7.579a.639.639,0,0,0,.282.687l7.908,4.972a.64.64,0,0,0,.742-.043l6.064-4.878A33.925,33.925,0,0,0,2118.7,986.4l4.111,6.614a.64.64,0,0,0,.686.286l9.107-2.076a.64.64,0,0,0,.494-.555l.839-7.742a33.915,33.915,0,0,0,8.968-6.354l7.579,1.769a.639.639,0,0,0,.687-.282l4.972-7.908a.64.64,0,0,0-.043-.742l-4.878-6.064a33.924,33.924,0,0,0,1.841-10.835l6.614-4.111a.639.639,0,0,0,.286-.686l-2.076-9.108a.64.64,0,0,0-.555-.494l-7.742-.839a33.919,33.919,0,0,0-6.354-8.968l1.768-7.579a.64.64,0,0,0-.282-.687l-7.908-4.972a.64.64,0,0,0-.741.043L2130,919.982a33.921,33.921,0,0,0-10.836-1.841l-4.111-6.614a.64.64,0,0,0-.685-.286l-9.108,2.076a.641.641,0,0,0-.494.555l-.839,7.742a33.918,33.918,0,0,0-8.968,6.354l-7.579-1.769a.64.64,0,0,0-.687.283l-4.972,7.908a.64.64,0,0,0,.043.742l4.879,6.064a33.913,33.913,0,0,0-1.841,10.836l-6.614,4.111a.639.639,0,0,0-.286.686Z" transform="translate(-2077.89 -911.226)" fill="#ff636e"/>
      <path id="Path_213" data-name="Path 213" d="M2234.8,1067.821a9.53,9.53,0,1,1-.95,1.051A9.715,9.715,0,0,1,2234.8,1067.821Zm11.687,2.058a7.031,7.031,0,0,0-9.941-.231h0a7.031,7.031,0,0,0,9.71,10.172,7.031,7.031,0,0,0,.231-9.941Z" transform="translate(-2200.356 -1033.691)" fill="#fff" opacity="0.56"/>
      <path id="Path_214" data-name="Path 214" d="M2173.428,1004.561a24.169,24.169,0,0,0-1.39,1.982,23.912,23.912,0,0,0-2.154,4.346l-.075.2a1.263,1.263,0,0,0,.409,1.428,1.279,1.279,0,0,0,.346.191,1.265,1.265,0,0,0,1.619-.756,21.369,21.369,0,0,1,1.994-4.068h0c.044-.071.09-.141.134-.21a21.072,21.072,0,0,1,7.614-7.114,21.39,21.39,0,0,1,5.349-2.053l.045-.011.142-.033a21.138,21.138,0,0,1,16.053,2.733,21.562,21.562,0,0,1,1.793,1.257,21.278,21.278,0,1,1-32.087,26.4,1.25,1.25,0,0,0-.349-.424,1.263,1.263,0,0,0-1.9,1.568,23.806,23.806,0,1,0,35.9-29.533,24.307,24.307,0,0,0-2-1.407A23.839,23.839,0,0,0,2173.428,1004.561Z" transform="translate(-2150.95 -978.198)" fill="#fff" opacity="0.56"/>
    </g>
    <g id="Group_94" data-name="Group 94" transform="translate(445.107 494.755)">
      <g id="Group_93" data-name="Group 93" transform="translate(0 0)">
        <path id="Path_215" data-name="Path 215" d="M449.748,764.1l-4.262,18.592a14.977,14.977,0,0,0,6.676,16.055l12.851,8.01a12.523,12.523,0,0,1,5.844,10,133.675,133.675,0,0,0,5.093,30.071,12.531,12.531,0,0,1-2.233,11.377L464.2,870a14.976,14.976,0,0,0-1.03,17.357l10.133,16.16a14.977,14.977,0,0,0,16.074,6.632l14.766-3.427a12.532,12.532,0,0,1,11.213,2.946,133.714,133.714,0,0,0,24.851,17.682,12.523,12.523,0,0,1,6.453,9.613l1.613,15.057a14.976,14.976,0,0,0,11.545,13l18.592,4.261a14.977,14.977,0,0,0,16.055-6.676l8.011-12.851a12.522,12.522,0,0,1,10-5.843,133.7,133.7,0,0,0,30.071-5.093,12.533,12.533,0,0,1,11.377,2.232l11.8,9.516a14.975,14.975,0,0,0,17.357,1.03l16.16-10.133a14.977,14.977,0,0,0,6.633-16.073l-3.427-14.767a12.531,12.531,0,0,1,2.946-11.213,133.747,133.747,0,0,0,17.681-24.851,12.52,12.52,0,0,1,9.613-6.452L747.74,866.5a14.975,14.975,0,0,0,13-11.544L765,836.36a14.975,14.975,0,0,0-6.675-16.054L745.476,812.3a12.524,12.524,0,0,1-5.844-10,133.684,133.684,0,0,0-5.092-30.071,12.533,12.533,0,0,1,2.232-11.377l9.516-11.8a14.976,14.976,0,0,0,1.03-17.357l-10.133-16.16a14.977,14.977,0,0,0-16.074-6.632l-14.766,3.427a12.532,12.532,0,0,1-11.213-2.946A133.7,133.7,0,0,0,670.281,691.7a12.522,12.522,0,0,1-6.452-9.613l-1.613-15.057a14.976,14.976,0,0,0-11.545-13l-18.593-4.262a14.974,14.974,0,0,0-16.054,6.675L608.013,669.3a12.523,12.523,0,0,1-10,5.844,133.727,133.727,0,0,0-30.071,5.092A12.531,12.531,0,0,1,556.569,678l-11.8-9.516a14.977,14.977,0,0,0-17.358-1.031l-16.16,10.134a14.976,14.976,0,0,0-6.632,16.072l3.427,14.767A12.532,12.532,0,0,1,505.1,719.64,133.743,133.743,0,0,0,487.42,744.49a12.521,12.521,0,0,1-9.613,6.453l-15.058,1.613A14.976,14.976,0,0,0,449.748,764.1ZM500.1,773.95a111,111,0,1,1,69.568,140.722A111,111,0,0,1,500.1,773.95Z" transform="translate(-445.107 -649.389)" fill="#b8c1c9"/>
      </g>
    </g>
    <g id="Group_97" data-name="Group 97" transform="translate(481.067 455.001)">
      <g id="Group_96" data-name="Group 96" transform="translate(0 69.422)">
        <g id="Group_95" data-name="Group 95" clip-path="url(#clip-path)">
          <path id="Path_216" data-name="Path 216" d="M950.591,1198.616s-50.276-103.895-8.242-208.911c0,0,54.438-13.663,129.12,28.309,0,0-45.763,60.861-30.554,168C1040.916,1186.011,975.063,1209.528,950.591,1198.616Z" transform="translate(-863.285 -948.085)" fill="#06aff2"/>
        </g>
      </g>
      <path id="Path_217" data-name="Path 217" d="M1263.7,794.188l-21.949,40.378a8.709,8.709,0,0,0,2.421,11.124c5.994,4.508,16.058,9.848,27.01,6.156a11.834,11.834,0,0,0,7.475-7.714l11.034-35.385Z" transform="translate(-1113.945 -724.821)" fill="#ffc5b2"/>
      <path id="Path_218" data-name="Path 218" d="M770.552,1182.993s-28.177-95.076,30.767-138.081l-9.487-46.942s-98.306,66.67-33.146,181.763Z" transform="translate(-712.768 -886.927)" fill="#06aff2"/>
      <path id="Path_219" data-name="Path 219" d="M845.468,1867.8s.89,15.262,15.33,14.021c15.208-1.306,16.749,17.563,29.416,10.765a2.22,2.22,0,0,0,1.111-2.577c-1.844-6.23-10.231-28-37.186-27.049Z" transform="translate(-799.55 -1574.991)" fill="#ffc5b2"/>
      <path id="Path_220" data-name="Path 220" d="M1537.382,1136.393s47.166,73.015,114.327,71.445l4.692,9.586s-89.531,28.413-145.119-41.643Z" transform="translate(-1329.198 -997.041)" fill="#06aff2"/>
      <path id="Path_221" data-name="Path 221" d="M1345.662,808.035s9.722,30.676,23.969,23.15S1345.662,808.035,1345.662,808.035Z" transform="translate(-1197.449 -735.836)" fill="#ffad97"/>
      <path id="Path_222" data-name="Path 222" d="M2190.627,1454.118a6.47,6.47,0,0,1,4.444-9.943q.343-.045.711-.074c7.854-.607,15.644-2.723,18.343-5.064a2.115,2.115,0,0,1,3.031.18c.96,1.215.573,3.508-6.465,7.59,0,0,17.133,4.506,29.619-3.288,12.171-7.6-2.7,26.933-43.653,15.89a8.635,8.635,0,0,1-4.986-3.673Z" transform="translate(-1868.778 -1237.351)" fill="#ffc5b2"/>
      <path id="Path_223" data-name="Path 223" d="M1358.914,587.968s16.392,49.892-4.043,60.848-40.322-36.587-40.322-36.587S1318.346,561.161,1358.914,587.968Z" transform="translate(-1172.7 -554.586)" fill="#ffc5b2"/>
      <path id="Path_224" data-name="Path 224" d="M1259.878,524.368c-.59,1.085-10.66,10.144-19.411-.081s-4-18.916,6.189-21.578c0,0-7.06-2.783-3.552-8.96a6.552,6.552,0,0,1,9.2-2.882s-4.422-39.265,29.5-35.628,30.459,23.261,28.7,29.251-16.558,16.1-35.883,9.472a8.5,8.5,0,0,1,.923,11.163c-4.245,6.522-17.619,10.738-17.619,10.738Z" transform="translate(-1110.126 -455.001)" fill="#131f2d"/>
      <path id="Path_225" data-name="Path 225" d="M1329.012,751.512s-5.147-15.4-12.619-9.108c-9.626,8.11,8.992,14.6,8.992,14.6Z" transform="translate(-1171.969 -682.424)" fill="#ffc5b2"/>
    </g>
    <g id="Group_98" data-name="Group 98" transform="translate(703.025 712.661)">
      <path id="Path_226" data-name="Path 226" d="M1707.449,1853.265l-1.162,18.5a14.557,14.557,0,0,0,8.929,14.349l13.587,5.661a12.172,12.172,0,0,1,7.178,8.668,129.937,129.937,0,0,0,9.615,28.042,12.178,12.178,0,0,1-.351,11.263l-7.271,12.815a14.557,14.557,0,0,0,1.743,16.81l12.261,13.906a14.556,14.556,0,0,0,16.46,3.833l13.625-5.61a12.18,12.18,0,0,1,11.218,1.061,129.988,129.988,0,0,0,26.618,13.05,12.172,12.172,0,0,1,7.7,8.206l3.916,14.189a14.556,14.556,0,0,0,13.119,10.654l18.5,1.163a14.557,14.557,0,0,0,14.349-8.929l5.662-13.587a12.172,12.172,0,0,1,8.668-7.177,129.925,129.925,0,0,0,28.041-9.616,12.183,12.183,0,0,1,11.264.352l12.814,7.271a14.555,14.555,0,0,0,16.81-1.743l13.906-12.261a14.557,14.557,0,0,0,3.833-16.46l-5.61-13.625a12.18,12.18,0,0,1,1.061-11.218,129.978,129.978,0,0,0,13.05-26.618,12.17,12.17,0,0,1,8.206-7.7l14.188-3.917a14.554,14.554,0,0,0,10.654-13.118l1.163-18.5a14.555,14.555,0,0,0-8.927-14.348l-13.588-5.661a12.171,12.171,0,0,1-7.178-8.668,129.937,129.937,0,0,0-9.615-28.042,12.184,12.184,0,0,1,.351-11.263l7.271-12.815a14.557,14.557,0,0,0-1.743-16.81l-12.261-13.906a14.557,14.557,0,0,0-16.46-3.832l-13.625,5.609a12.18,12.18,0,0,1-11.218-1.061,129.978,129.978,0,0,0-26.618-13.05,12.171,12.171,0,0,1-7.7-8.206l-3.916-14.189a14.556,14.556,0,0,0-13.119-10.654l-18.5-1.163a14.554,14.554,0,0,0-14.348,8.928l-5.662,13.588a12.172,12.172,0,0,1-8.668,7.178,129.964,129.964,0,0,0-28.042,9.615,12.18,12.18,0,0,1-11.263-.351l-12.815-7.271a14.557,14.557,0,0,0-16.811,1.742l-13.906,12.262a14.555,14.555,0,0,0-3.832,16.459l5.61,13.625a12.18,12.18,0,0,1-1.061,11.219,129.975,129.975,0,0,0-13.049,26.618,12.171,12.171,0,0,1-8.206,7.7l-14.189,3.916A14.557,14.557,0,0,0,1707.449,1853.265Zm49.845,1.525a107.89,107.89,0,1,1,88.865,124.031A107.89,107.89,0,0,1,1757.294,1854.79Z" transform="translate(-1706.258 -1714.888)" fill="#b8c1c9"/>
    </g>
    <g id="Group_101" data-name="Group 101" transform="translate(628.272 687.243)">
      <g id="Group_100" data-name="Group 100" clip-path="url(#clip-path-2)">
        <g id="Group_99" data-name="Group 99" transform="translate(32.034 28.877)">
          <path id="Path_227" data-name="Path 227" d="M2238.987,1770.056s-18.448-33.573,25.441-36.034c0,0,19.013-9.07,25.51,9.476,0,0,15.334,4.736,10.657,23.782,0,0,33.944-25.9,60.358,2.775s16.464,51.571,1.806,61.046c0,0,14.908,2.747,13.042,19.286s-30.024,36.006-53.662,23.431c0,0-50.4,22.175-60.119-15.152,0,0-28.958-8.65-12.255-46.695S2238.987,1770.056,2238.987,1770.056Z" transform="translate(-2084.258 -1731.804)" fill="#131f2d"/>
          <path id="Path_228" data-name="Path 228" d="M1804.118,2427.91s12.272,40.473,46.479,39.8,38.047-67.632,38.047-67.632l18.845,64.138s-13,36.321-60.93,29.708-58.062-58.109-58.062-58.109-25.184,5.374-28.067-20.868a2,2,0,0,1,3.289-1.736c5.091,4.362,14.98,11.3,24.777,9.541C1802.549,2420.233,1804.118,2427.91,1804.118,2427.91Z" transform="translate(-1706.621 -2263.412)" fill="#ffad97"/>
          <path id="Path_229" data-name="Path 229" d="M2304.359,2293.891c7.543-4.882,30.274-16.456,59.305-1.994a14.76,14.76,0,0,1,8.192,12.934c.437,24.42,3.671,96,26.309,120.794,0,0-17.023,34.917-50.842,20.606,0,0-27.822-49.9-50.717-68.692-15.807-12.977-.015-65.995,4.129-78.9A8.883,8.883,0,0,1,2304.359,2293.891Z" transform="translate(-2127.678 -2171.765)" fill="#06aff2"/>
          <path id="Path_230" data-name="Path 230" d="M2350.8,2076.652s22.279,31.014,27.636,46a27.224,27.224,0,0,1-27.464,3.408s-11.381-34.141-15.11-39.762Z" transform="translate(-2164.378 -2006.127)" fill="#ffc5b2"/>
          <path id="Path_231" data-name="Path 231" d="M2351.332,2092.433s.755,17.7-13.572,14.277S2351.332,2092.433,2351.332,2092.433Z" transform="translate(-2162.636 -2018.681)" fill="#ffad97"/>
          <path id="Path_232" data-name="Path 232" d="M2230.186,1853.143s-18.952,54.035,3.937,61.47,36.4-30.977,36.4-30.977.293-26.644-9.879-32.693S2230.186,1853.143,2230.186,1853.143Z" transform="translate(-2074.457 -1824.814)" fill="#ffc5b2"/>
          <path id="Path_233" data-name="Path 233" d="M2262.311,1783.077s-13.673,7.752-13.8,15,24.55,6.747,31.05,5.183l12.967,25.31s7.934-29.666-2.354-42.473S2262.311,1783.077,2262.311,1783.077Z" transform="translate(-2094.897 -1769.744)" fill="#131f2d"/>
          <path id="Path_234" data-name="Path 234" d="M2421.075,1965.074s8.25-18.029,15.932-10.075-6.414,19.705-13.346,16.719Z" transform="translate(-2232.168 -1907.741)" fill="#ffc5b2"/>
          <path id="Path_235" data-name="Path 235" d="M1499.09,2308.311l108.083,40.912a2.658,2.658,0,0,0,2.533-.357l23.715-17.726a2.657,2.657,0,0,0-.326-4.468c-14.6-7.867-69.836-36.647-105.677-41.912a2.652,2.652,0,0,0-1.881.442l-27,18.427A2.659,2.659,0,0,0,1499.09,2308.311Z" transform="translate(-1497.372 -2171.652)" fill="#131f2d"/>
          <path id="Path_236" data-name="Path 236" d="M1504.087,2279.233l107.093,44.49a2.658,2.658,0,0,0,2.558-.286l24.852-17.616a2.656,2.656,0,0,0-.437-4.59c-17.772-8.016-86.45-38.79-104.891-44.039a2.642,2.642,0,0,0-2.122.3l-27.435,17.024A2.659,2.659,0,0,0,1504.087,2279.233Z" transform="translate(-1501.41 -2149.665)" fill="#4ae0ff"/>
          <path id="Path_237" data-name="Path 237" d="M1522.069,2243.866l104.278,52.079a2.66,2.66,0,0,0,2.735-.216l23.983-17.161a2.659,2.659,0,0,0-.448-4.584L1547.764,2226.4a2.659,2.659,0,0,0-2.364.083l-23.408,12.668A2.659,2.659,0,0,0,1522.069,2243.866Z" transform="translate(-1515.848 -2125.06)" fill="#131f2d"/>
          <path id="Path_238" data-name="Path 238" d="M1865.411,2390.309s8.554,3.793,11.266,2.139c7.029-4.286,20.557-10.9,28.766-8.674,11.376,3.087,27.658,23.034,44.965,37.091s56.88,19.824,71.809,1.392-14.266-56.809,3.413-68.023,34.273,47.15,32.679,61.1-17.327,54.212-69.405,47.934-82.173-60.121-82.173-60.121-14.852,1.793-23.242,1.271S1865.411,2390.309,1865.411,2390.309Z" transform="translate(-1790.143 -2225.811)" fill="#ffc5b2"/>
        </g>
      </g>
    </g>
  </g>
</svg>
