<svg xmlns="http://www.w3.org/2000/svg" viewBox="0 0 693.35 479.89"><defs><style>.cls-1{opacity:0.15;}.cls-2,.cls-5,.cls-6{fill:#29abe2;}.cls-2{opacity:0.2;}.cls-3{opacity:0.5;}.cls-4{fill:#fff;}.cls-6,.cls-7{opacity:0.35;}</style></defs><g id="Layer_2" data-name="Layer 2"><g id="Layer_1-2" data-name="Layer 1"><ellipse class="cls-1" cx="346.66" cy="408.76" rx="93.15" ry="5.58"/><path class="cls-2" d="M693.35,365.58H0C0,163.67,155.21,0,346.67,0S693.35,163.67,693.35,365.58Z"/><g class="cls-3"><polygon class="cls-4" points="359.51 70.45 358.74 58.85 384.14 58.85 387.48 70.45 359.51 70.45"/><polygon class="cls-4" points="333.96 70.45 306 70.45 309.35 58.85 334.73 58.85 333.96 70.45"/><polygon class="cls-4" points="354.66 70.45 338.82 70.45 339.29 58.85 354.18 58.85 354.66 70.45"/><polygon class="cls-4" points="280.72 158.37 328.1 158.37 326.11 188.28 272.12 188.28 280.72 158.37"/><polygon class="cls-4" points="290.79 123.36 330.44 123.36 328.71 149.23 283.35 149.23 290.79 123.36"/><polygon class="cls-4" points="298.72 95.77 332.27 95.77 330.88 116.77 292.68 116.77 298.72 95.77"/><polygon class="cls-4" points="333.64 75.28 332.65 90.17 300.33 90.17 304.62 75.28 333.64 75.28"/><polygon class="cls-4" points="355.47 90.17 338 90.17 338.62 75.28 354.86 75.28 355.47 90.17"/><polygon class="cls-4" points="356.57 116.77 336.9 116.77 337.77 95.77 355.71 95.77 356.57 116.77"/><polygon class="cls-4" points="357.91 149.23 335.56 149.23 336.63 123.36 356.85 123.36 357.91 149.23"/><polygon class="cls-4" points="359.53 188.28 333.95 188.28 335.18 158.37 358.29 158.37 359.53 188.28"/><polygon class="cls-4" points="393.15 90.17 360.83 90.17 359.83 75.28 388.86 75.28 393.15 90.17"/><polygon class="cls-4" points="400.8 116.77 362.6 116.77 361.2 95.77 394.76 95.77 400.8 116.77"/><polygon class="cls-4" points="410.13 149.23 364.76 149.23 363.04 123.36 402.69 123.36 410.13 149.23"/><polygon class="cls-4" points="421.37 188.28 367.36 188.28 365.37 158.37 412.76 158.37 421.37 188.28"/><polygon class="cls-4" points="323.08 233.83 259.01 233.83 268.7 200.15 325.32 200.15 323.08 233.83"/><polygon class="cls-4" points="361.41 233.83 332.07 233.83 333.46 200.15 360.02 200.15 361.41 233.83"/><polygon class="cls-4" points="370.39 233.83 368.15 200.15 424.78 200.15 434.46 233.83 370.39 233.83"/><polygon class="cls-4" points="254.75 248.66 322.09 248.66 319.58 286.41 243.89 286.41 254.75 248.66"/><polygon class="cls-4" points="362.02 248.66 363.58 286.41 329.89 286.41 331.46 248.66 362.02 248.66"/><polygon class="cls-4" points="449.59 286.41 373.89 286.41 371.38 248.66 438.73 248.66 449.59 286.41"/><path class="cls-4" d="M460.27,365.58H233.2c-6,0-10.23-6.45-8.41-12.76L239,303.55H454.51l14.18,49.27C470.5,359.13,466.25,365.58,460.27,365.58Z"/><line class="cls-4" x1="306.01" y1="70.45" x2="304.62" y2="75.28"/><line class="cls-4" x1="388.86" y1="75.28" x2="387.48" y2="70.45"/><path class="cls-4" d="M384.87,30.32c-1.91-4.05-.9-13.85-.9-13.85a66.13,66.13,0,0,0-7.56,11.76c-1-1.61-2.51-3.32-4.49-3.13a13.7,13.7,0,0,1,3.59,5.11,23.89,23.89,0,0,0-1.91,7.08h-7a10.11,10.11,0,0,1,3-3.75c-3.88-.07-4.29-4.26-4.29-4.26-.2,3.53-4.18,4.46-4.18,4.46a7.09,7.09,0,0,1,3,3.55h-8.77a4.78,4.78,0,0,0-1.88-3.52,4.06,4.06,0,0,0-3.18-4.28s2.53-2.29.89-3.52a7.56,7.56,0,0,0-3.53-1.1c0-.12-.12-2.23-.93-2.23s-1.06,2.25-1.06,2.25h0A7.29,7.29,0,0,0,342.28,26c-1.65,1.23.88,3.52.88,3.52A4.07,4.07,0,0,0,340,33.77a4.78,4.78,0,0,0-1.88,3.52h-8.73a10,10,0,0,1,3-3.75c-3.88-.07-4.28-4.26-4.28-4.26-.21,3.53-4.19,4.46-4.19,4.46a7.15,7.15,0,0,1,3,3.55h-7.17a23.62,23.62,0,0,0-1.92-7.08,13.83,13.83,0,0,1,3.59-5.11c-2-.19-3.49,1.52-4.48,3.13a66.77,66.77,0,0,0-7.56-11.76s1,9.8-.91,13.85c-5.52,11.75,4.05,17.15,4.05,17.15l.13,0L310.73,54h72l-1.89-6.56C381.49,47.08,390.2,41.65,384.87,30.32Z"/></g><circle class="cls-5" cx="346.74" cy="155.89" r="34.86"/><path class="cls-6" d="M397.33,188.77a120.89,120.89,0,0,0,38.36-17.71A108.11,108.11,0,0,0,451.77,157a128.39,128.39,0,0,0,13.38-17.18,220,220,0,0,0,11.08-19.36l5.23-10.14a103.14,103.14,0,0,1,5.89-10.11c.6-.81,1.13-1.64,1.79-2.43a24.38,24.38,0,0,1,2-2.27l2.07-2.13c.71-.69,1.49-1.3,2.23-1.95l1.13-1c.38-.31.79-.58,1.19-.87.81-.57,1.59-1.17,2.41-1.7l2.52-1.51c.84-.5,1.74-.89,2.61-1.34a47.91,47.91,0,0,1,11-3.7,42.88,42.88,0,0,1,11.39-.89,42.27,42.27,0,0,0-11.07,2.1,45.68,45.68,0,0,0-10.09,4.69c-.77.51-1.57,1-2.3,1.52L502,90.44c-.71.57-1.37,1.21-2.05,1.81-.34.31-.69.6-1,.92l-.94,1c-.61.68-1.26,1.31-1.84,2l-1.68,2.15a30.37,30.37,0,0,0-2.86,4.48,100.9,100.9,0,0,0-4.48,10.12l-4.07,10.61a231.31,231.31,0,0,1-9.25,21.28A141.19,141.19,0,0,1,461.38,165a122,122,0,0,1-16.29,17.75c-12.07,10.82-26.4,19-41.4,25a10,10,0,0,1-7.4-18.62C396.63,189,397,188.87,397.33,188.77Z"/><path class="cls-6" d="M300.74,220.64c-.4-.22-.58-.34-.86-.51l-.74-.46-1.42-.91c-.93-.6-1.84-1.21-2.74-1.83-1.8-1.24-3.55-2.5-5.28-3.79q-5.18-3.87-10-8a195.76,195.76,0,0,1-18.23-17.85,169.35,169.35,0,0,1-28-42.12,143.74,143.74,0,0,1-8.5-23.64c-.54-2-1-4.11-1.51-5.9a42,42,0,0,0-2-5.41,32.63,32.63,0,0,0-6.31-9.49,44.78,44.78,0,0,0-9.2-7.29,89.46,89.46,0,0,0-10.72-5.51c-7.42-3.26-15.15-5.91-22.9-8.45,7.94,1.88,15.87,3.88,23.65,6.54a91.76,91.76,0,0,1,11.47,4.74,48.21,48.21,0,0,1,10.55,7,37.11,37.11,0,0,1,8,10.16,45.47,45.47,0,0,1,2.71,5.9c.75,2.08,1.39,3.9,2.12,5.77a137.94,137.94,0,0,0,10.52,21.36A157.35,157.35,0,0,0,271.73,177a179.36,179.36,0,0,0,18.49,14.43c3.22,2.19,6.5,4.28,9.83,6.23,1.67,1,3.34,1.92,5,2.81.84.45,1.68.89,2.51,1.3l1.24.61.59.28c.17.08.44.2.49.21a10.2,10.2,0,1,1-4.6,19.87,10.31,10.31,0,0,1-2.65-1Z"/><path class="cls-6" d="M314.78,217.78l-.23.37-.15.23-.29.41-.54.73c-.35.45-.7.9-1,1.3-.7.84-1.39,1.61-2.1,2.35a56.32,56.32,0,0,1-4.35,4.15,73.8,73.8,0,0,1-9.33,6.84,82.52,82.52,0,0,1-9.93,5.3c-1.68.81-3.41,1.45-5.12,2.16s-3.44,1.3-5.19,1.82c-13.93,4.49-28.23,6-42.19,5.75a176.71,176.71,0,0,1-20.77-1.52c-3.45-.37-6.79-1-10.16-1.5-.68-.12-1.59-.2-2.39-.29l-2.49-.23c-1.66-.14-3.33-.25-5-.34a155.28,155.28,0,0,0-20.12.11,77.21,77.21,0,0,0-19.81,3.78,78.65,78.65,0,0,1,19.48-6.15,161.1,161.1,0,0,1,20.42-2.53c1.72-.11,3.44-.19,5.16-.25l2.59-.07c.89,0,1.68,0,2.69,0,3.37.09,6.77.28,10.09.22a170.2,170.2,0,0,0,19.86-1c13.07-1.42,25.86-4.5,37.23-9.84,1.44-.62,2.8-1.4,4.19-2.08s2.72-1.49,4-2.33a65.4,65.4,0,0,0,7.42-5.25,57.17,57.17,0,0,0,6.36-6,38.49,38.49,0,0,0,2.63-3.24c.4-.54.77-1.09,1.09-1.61.18-.27.32-.52.46-.76s.11-.21.17-.32a.78.78,0,0,0,.05-.12l0,0s-.05.07-.07.1a10,10,0,1,1,17.36,9.92Z"/><path class="cls-6" d="M414.2,189.54a3.53,3.53,0,0,0,.3.64l.47.88c.34.6.7,1.2,1.07,1.82.77,1.22,1.57,2.44,2.44,3.65a86.07,86.07,0,0,0,5.62,7A94.32,94.32,0,0,0,437.61,216a103.77,103.77,0,0,0,33.66,16.53,126.62,126.62,0,0,0,18.9,3.86l4.84.54,4.91.34,5,.36c1.68.14,3.37.3,5.05.49a78.64,78.64,0,0,1,10.07,1.78,69.29,69.29,0,0,1,9.67,3.19c3.12,1.27,6.15,2.72,9.1,4.28s5.85,3.2,8.72,4.87a142.13,142.13,0,0,0-18.57-7,67.56,67.56,0,0,0-9.56-2,72.89,72.89,0,0,0-9.7-.56c-1.63,0-3.26,0-4.9.09s-3.22.13-4.93.24l-5,.31-5.11.09A135.24,135.24,0,0,1,469.21,242a116,116,0,0,1-39.67-13.54A109.48,109.48,0,0,1,412,216a102.55,102.55,0,0,1-7.9-7.59c-1.26-1.35-2.48-2.76-3.68-4.21-.59-.74-1.19-1.49-1.77-2.27l-.89-1.21c-.31-.46-.54-.77-1-1.49a10,10,0,0,1,17.48-9.73Z"/><path class="cls-5" d="M556,187.28a81.34,81.34,0,0,0-15-1.51,101.31,101.31,0,0,0-15.16,1c-2.52.35-5,.75-7.53,1.28-1.25.27-2.5.55-3.75.86l-1.88.49-1.28.37c-8.81,1.45-17.61,2.67-26.41,3.46a257.73,257.73,0,0,1-26.28,1.11c-2.18,0-4.35-.09-6.52-.21s-4.32-.24-6.47-.4c-4.3-.33-8.55-.92-12.74-1.6a100,100,0,0,1-12.27-2.82c-2-.59-3.93-1.21-5.79-1.93-.93-.36-1.85-.73-2.7-1.13-.44-.19-.85-.39-1.25-.59l-.86-.45-5.68-3h0a49.79,49.79,0,0,1-7.5,5.9,79,79,0,0,1-8.16,4.7,99.85,99.85,0,0,1-17.39,6.62,139.29,139.29,0,0,1-36.55,4.83c-6.15.08-12.34-.24-18.47-.69-3-.25-6-.67-8.95-1.15s-5.94-1-8.87-1.74a170.73,170.73,0,0,1-34.31-12.36c-5.55-2.64-11-5.48-16.44-8.57s-10.78-6.26-16.09-9.61-10.6-6.8-15.94-10.26l-8-5.26-8.15-5.21c-2.74-1.74-5.53-3.44-8.42-5.07a95.89,95.89,0,0,0-9-4.63,48.31,48.31,0,0,0-20.62-4,63.71,63.71,0,0,0-19.79,3.72,68.84,68.84,0,0,0-17.36,9,79.82,79.82,0,0,1,9.18-2.76,91.23,91.23,0,0,1,9.27-1.79,66.47,66.47,0,0,1,18.25-.13,44.65,44.65,0,0,1,8.54,2l2,.73,2,.83a38.42,38.42,0,0,1,3.71,2,171.69,171.69,0,0,1,15.06,10.62c10,7.71,20.23,15.64,31,23,5.38,3.67,10.89,7.22,16.55,10.57s11.51,6.47,17.51,9.31a156.32,156.32,0,0,0,38.08,12.63l1.45.26c.31,3.07,11.69,114.4,21.25,128,1.44,2.86,14.9,9.33,25,11.85,0,0,29.08-7.84,31.68-10.45,6.63-18.76.51-103.2,30.61-142.3.57-.46,1.13-1,1.69-1.42.66.28,1.32.56,2,.82,2.36.93,4.71,1.73,7.08,2.42a116.15,116.15,0,0,0,14.23,3.13,130.2,130.2,0,0,0,14.26,1.44c4.75.25,9.48.31,14.18.13a205,205,0,0,0,27.89-2.95,245.86,245.86,0,0,0,27-6.34l.66-.19.05,0c.39-.19,1-.43,1.48-.64l1.6-.64c1.08-.42,2.18-.82,3.29-1.2,2.21-.77,4.46-1.51,6.73-2.15a120.16,120.16,0,0,1,13.85-3.13c2.35-.39,4.71-.7,7.09-.9s4.77-.36,7.17-.39a77.64,77.64,0,0,1,14.52,1.13A61.53,61.53,0,0,0,556,187.28Z"/><path class="cls-4" d="M349.69,314.45l-2.38-6.7c-.37-1.12-.82-2.22-1.14-3.35l-.92-3.41c-.57-2.27-1.29-4.51-1.74-6.8l-1.35-6.86a183.1,183.1,0,0,1-2.58-27.54,232.75,232.75,0,0,1,1.16-27.35,215.5,215.5,0,0,1,4.36-26.83,215.66,215.66,0,0,0-1.45,27,229.52,229.52,0,0,0,1.76,26.78,173.86,173.86,0,0,0,5.29,26l1.95,6.27c.65,2.09,1.54,4.08,2.3,6.12l1.18,3c.39,1,.92,2,1.37,2.94l2.79,5.81-2.23,9.68Z"/><path class="cls-4" d="M339.63,204.17c3.48-1.28,5-1.23,9.19-.54-.87,3.92-2.91,7.72-3.54,8.28a2.29,2.29,0,0,1-2.48.06C342,211.29,340.09,206.61,339.63,204.17Z"/><path class="cls-5" d="M400,381.7s-49.75-9-118.2-41-82.7,41-30.24,43c48.6,1.92,121-31.68,183.67-44.26C487.61,329,505.35,398.57,400,381.7Z"/><path class="cls-5" d="M538.58,160.87l-2.78-.33a12.74,12.74,0,0,0-1.24-3l1.73-2.19a.92.92,0,0,0-.07-1.17l-2.87-2.87a.9.9,0,0,0-1.17-.07L530,153a12.49,12.49,0,0,0-3-1.24l-.33-2.78a.9.9,0,0,0-.87-.78h-4.06a.92.92,0,0,0-.88.78l-.33,2.78a12.1,12.1,0,0,0-3,1.24l-2.21-1.73a.9.9,0,0,0-1.16.07l-2.87,2.87a.92.92,0,0,0-.07,1.17l1.73,2.2a12.49,12.49,0,0,0-1.24,3l-2.78.33a.92.92,0,0,0-.77.88v4.06a.9.9,0,0,0,.77.87l2.79.33a12.3,12.3,0,0,0,1.23,3l-1.73,2.2a.92.92,0,0,0,.07,1.17l2.87,2.87a.9.9,0,0,0,1.16.08l2.21-1.74a12.1,12.1,0,0,0,3,1.24l.33,2.78a.92.92,0,0,0,.88.78h4.06a.9.9,0,0,0,.87-.78l.33-2.78a12.57,12.57,0,0,0,3-1.24l2.2,1.73a.91.91,0,0,0,1.16-.07l2.87-2.87a.9.9,0,0,0,.07-1.17l-1.73-2.2a12.1,12.1,0,0,0,1.24-3l2.79-.34a.9.9,0,0,0,.77-.87v-4.06A.91.91,0,0,0,538.58,160.87Zm-14.82,10.7a7.8,7.8,0,1,1,7.8-7.8A7.8,7.8,0,0,1,523.76,171.57Z"/><path class="cls-5" d="M557.93,148.07l-2.09-.25a9.38,9.38,0,0,0-.94-2.26l1.31-1.65a.68.68,0,0,0-.06-.88L554,140.87a.67.67,0,0,0-.87-.05l-1.66,1.3a9.45,9.45,0,0,0-2.25-.93L549,139.1a.68.68,0,0,0-.65-.59h-3.06a.68.68,0,0,0-.65.59l-.25,2.09a9.35,9.35,0,0,0-2.26.93l-1.66-1.3a.68.68,0,0,0-.87.05L537.39,143a.68.68,0,0,0-.06.88l1.31,1.66a8.9,8.9,0,0,0-.93,2.25l-2.1.25a.68.68,0,0,0-.58.66v3.06a.67.67,0,0,0,.58.65l2.09.25a9.38,9.38,0,0,0,.94,2.26l-1.31,1.65a.68.68,0,0,0,.06.88l2.15,2.16a.68.68,0,0,0,.88.05l1.66-1.3a9.7,9.7,0,0,0,2.25.93l.25,2.09a.68.68,0,0,0,.66.58h3a.68.68,0,0,0,.66-.58l.25-2.09a9.7,9.7,0,0,0,2.25-.93l1.66,1.3a.68.68,0,0,0,.88-.05l2.16-2.17a.67.67,0,0,0,.05-.87l-1.3-1.66a9.52,9.52,0,0,0,.93-2.25l2.09-.25a.68.68,0,0,0,.59-.66v-3.05A.68.68,0,0,0,557.93,148.07Zm-11.16,8.06a5.88,5.88,0,1,1,5.87-5.87A5.87,5.87,0,0,1,546.77,156.13Z"/><circle class="cls-5" cx="160.53" cy="110.91" r="20.42"/><path class="cls-4" d="M163.7,100.41h4.57l1.67-2.56H152.79l-1.67,2.56H154c3,0,5.79.22,6.9,2.78h-8.13l-1.67,2.56h10.13v.12c0,1.89-1.56,4.78-6.68,4.78H152v2.45l10,12.58h4.57l-10.47-13c4.34-.23,8.35-2.67,8.91-6.91h3.23l1.67-2.56h-5A5.24,5.24,0,0,0,163.7,100.41Z"/><g class="cls-7"><path class="cls-5" d="M202.3,234.55h-.61V211.94h-7.34v22.61h-1.83v-27.5h-7.33v27.5h-1.83V226H176v8.55h-1.83V220.5h-7.33v14.05a.61.61,0,0,0,0,1.22H202.3a.61.61,0,1,0,0-1.22Z"/></g><path d="M0,438.63v-4.35H24.38v4.35H14.46v40.14H9.92V438.63Z"/><path d="M54.86,478.77V434.28h1l29.61,34.11V434.28h4.39v44.49h-1L59.46,445.08v33.69Z"/><path d="M142.87,434.28l20.75,44.49h-4.8l-7-14.64H132.65l-6.93,14.64h-5l21-44.49Zm-.56,9.45-7.62,16.11H149.9Z"/><path d="M190,470.49l3.78-2.27q4,7.35,9.22,7.35a8.79,8.79,0,0,0,4.21-1.05,7.28,7.28,0,0,0,3-2.79,7.2,7.2,0,0,0,1-3.72,7.52,7.52,0,0,0-1.51-4.39,36,36,0,0,0-7.62-7.14q-5.56-4.2-6.93-6.08a11.12,11.12,0,0,1-2.36-6.8,10.43,10.43,0,0,1,1.39-5.3,9.93,9.93,0,0,1,3.92-3.76,11.24,11.24,0,0,1,5.49-1.38,11.66,11.66,0,0,1,5.88,1.56,20.21,20.21,0,0,1,5.8,5.73l-3.63,2.75a17.33,17.33,0,0,0-4.28-4.38,7.35,7.35,0,0,0-3.86-1.06,6.09,6.09,0,0,0-4.4,1.63,5.34,5.34,0,0,0-1.71,4,6.94,6.94,0,0,0,.6,2.82,10.61,10.61,0,0,0,2.21,3c.59.57,2.5,2.05,5.75,4.45q5.77,4.26,7.92,7.59a12.19,12.19,0,0,1,2.15,6.69,11.32,11.32,0,0,1-3.67,8.4,12.35,12.35,0,0,1-8.94,3.57,13.13,13.13,0,0,1-7.35-2.16A19.75,19.75,0,0,1,190,470.49Z"/><path d="M249.45,478.77V434.28h9.22q10,0,14.49,1.6a19.35,19.35,0,0,1,10.12,7.87,23.88,23.88,0,0,1,3.64,13.34A23.42,23.42,0,0,1,284,468.85a18.49,18.49,0,0,1-7.51,7.5q-4.61,2.43-12.93,2.42Zm4.26-4.2h5.14q9.22,0,12.8-1.15a14.73,14.73,0,0,0,7.89-5.88,18.06,18.06,0,0,0,2.88-10.38,19,19,0,0,0-3.12-11,15.72,15.72,0,0,0-8.68-6.26q-4.17-1.26-13.76-1.27h-3.15Z"/><path d="M361,442.54l-3.51,2.69a19.14,19.14,0,0,0-7-5.73,20.4,20.4,0,0,0-8.94-1.95,19.8,19.8,0,0,0-9.86,2.55,18.35,18.35,0,0,0-7,6.87,18.91,18.91,0,0,0-2.5,9.69,18.19,18.19,0,0,0,5.58,13.58,19.36,19.36,0,0,0,14.09,5.45,19.78,19.78,0,0,0,15.63-7.32L361,471a22.41,22.41,0,0,1-8.3,6.55,26.09,26.09,0,0,1-11.12,2.31q-11.67,0-18.42-7.77a23.47,23.47,0,0,1-5.66-15.85,22,22,0,0,1,6.86-16.44,23.58,23.58,0,0,1,17.16-6.67,25.18,25.18,0,0,1,11.25,2.46A21.88,21.88,0,0,1,361,442.54Z"/><path d="M431.72,460.2h16.64v3.69H431.72Z"/><path d="M521.08,434.28h8.78a20.94,20.94,0,0,1,8.13,1.25,10,10,0,0,1,4.49,3.86,10.58,10.58,0,0,1,1.65,5.78,10.44,10.44,0,0,1-1.44,5.4,10.78,10.78,0,0,1-4.25,3.95,16.25,16.25,0,0,1,5.34,2.76,11,11,0,0,1,2.91,3.84,11.48,11.48,0,0,1,1,4.89,12,12,0,0,1-3.92,9.06q-3.91,3.71-10.51,3.7H521.08Zm4.36,4.35v14.25H528a20.07,20.07,0,0,0,6.83-.86,7.4,7.4,0,0,0,3.45-2.72,7.15,7.15,0,0,0,1.27-4.13,5.86,5.86,0,0,0-2.13-4.8q-2.14-1.74-6.81-1.74Zm0,18.73v17.06H531a19.85,19.85,0,0,0,7.15-.95,8.16,8.16,0,0,0,3.66-3,7.72,7.72,0,0,0,1.37-4.39,7.58,7.58,0,0,0-1.93-5.17,10.05,10.05,0,0,0-5.33-3,39.38,39.38,0,0,0-7.92-.54Z"/><path d="M576,470.49l3.78-2.27q4,7.35,9.23,7.35a8.85,8.85,0,0,0,4.21-1.05,7.32,7.32,0,0,0,4-6.51,7.59,7.59,0,0,0-1.51-4.39,36.37,36.37,0,0,0-7.63-7.14q-5.57-4.2-6.92-6.08a11.06,11.06,0,0,1-2.36-6.8,10.33,10.33,0,0,1,1.39-5.3,9.8,9.8,0,0,1,3.92-3.76,11.23,11.23,0,0,1,5.48-1.38,11.72,11.72,0,0,1,5.89,1.56,20.32,20.32,0,0,1,5.79,5.73l-3.63,2.75a17.16,17.16,0,0,0-4.28-4.38,7.32,7.32,0,0,0-3.85-1.06,6.12,6.12,0,0,0-4.41,1.63,5.34,5.34,0,0,0-1.71,4,7,7,0,0,0,.61,2.82,10.41,10.41,0,0,0,2.21,3c.58.57,2.5,2.05,5.74,4.45q5.79,4.26,7.93,7.59a12.27,12.27,0,0,1,2.15,6.69,11.33,11.33,0,0,1-3.68,8.4,12.35,12.35,0,0,1-8.94,3.57,13.13,13.13,0,0,1-7.35-2.16A19.85,19.85,0,0,1,576,470.49Z"/><path d="M635.46,434.28h22.29v4.35H639.91v13.95h17.84v4.35H639.91v21.84h-4.45Z"/><path d="M688.9,434.28h4.45v44.49H688.9Z"/><g class="cls-7"><path class="cls-5" d="M202.42,63.56h1.4V72.9h2.8V63.56h4.67V72.9h2.8V63.56h4.67V72.9h2.8V63.56h4.67V72.9H229V63.56h1.4a1.4,1.4,0,0,0,.78-2.56l-14-9.34a1.41,1.41,0,0,0-1.55,0l-14,9.34a1.4,1.4,0,0,0,.78,2.56Z"/><path class="cls-5" d="M230.43,75.7h-28a1.4,1.4,0,0,0-1.4,1.4v3.74a1.4,1.4,0,0,0,1.4,1.4h28a1.4,1.4,0,0,0,1.4-1.4V77.1A1.4,1.4,0,0,0,230.43,75.7Z"/></g><g class="cls-7"><path class="cls-5" d="M517.2,209.32v23a2,2,0,0,0,2,2h22.59v-4a5.81,5.81,0,0,1-1-1.59,6,6,0,0,1,0-4.7,6,6,0,0,1,3.21-3.21,6,6,0,0,1,4.7,0A6,6,0,0,1,552,224a6,6,0,0,1,0,4.7,6.07,6.07,0,0,1-1,1.59v4h1.18a2,2,0,0,0,2-2V216.72h-7a2.43,2.43,0,0,1-2.43-2.44v-7H519.23A2,2,0,0,0,517.2,209.32Zm4.5,4.34H542v2.24H521.7Zm0,8h17.19v1.22H521.7Zm0,3.82h10.14v1.21H521.7Z"/><path class="cls-5" d="M546,207.48v6.8a1.22,1.22,0,0,0,1.22,1.22h7L546,207.29Z"/><path class="cls-5" d="M549.74,234.32v-2.95a6,6,0,0,1-3.35,1,5.92,5.92,0,0,1-2.35-.48,6,6,0,0,1-1-.54v5.75l3.35-1.33,3.35,1.33v-2.8Z"/><path class="cls-5" d="M550.35,229.09a4.74,4.74,0,0,0,.61-1.21,4.82,4.82,0,1,0-9.14,0,4.74,4.74,0,0,0,.61,1.21,4.65,4.65,0,0,0,.61.72,4.81,4.81,0,0,0,6.7,0A4.65,4.65,0,0,0,550.35,229.09Z"/></g><g class="cls-7"><path class="cls-5" d="M497.12,54a3.86,3.86,0,0,0-3.85,3.85,3.81,3.81,0,0,0,.47,1.84L487.43,66a5.08,5.08,0,0,0-6.29,0l-4.92-4.93a2.49,2.49,0,0,0,.37-1.29A2.57,2.57,0,1,0,474,62.37a2.49,2.49,0,0,0,1.29-.37l4.93,4.92a5.08,5.08,0,0,0,0,6.29l-8.13,8.13a3.84,3.84,0,1,0,1.27,2.84,3.77,3.77,0,0,0-.47-1.83l8.23-8.23a5.16,5.16,0,0,0,2.51,1v6.51a3.85,3.85,0,1,0,1.28,0V75.16a5.17,5.17,0,0,0,2.5-1L492.35,79a2.48,2.48,0,0,0-.36,1.29,2.57,2.57,0,1,0,2.56-2.56,2.48,2.48,0,0,0-1.29.36l-4.92-4.92a5.12,5.12,0,0,0,0-6.29l6.2-6.2a3.85,3.85,0,1,0,2.58-6.7Z"/></g></g></g></svg>