<svg xmlns="http://www.w3.org/2000/svg" viewBox="0 0 300 285"><defs><style>.cls-1{fill:#ff636e;}</style></defs><g id="Layer_2" data-name="Layer 2"><g id="Layer_1-2" data-name="Layer 1"><circle class="cls-1" cx="247.5" cy="67.5" r="37.5"/><circle class="cls-1" cx="52.5" cy="67.5" r="37.5"/><circle class="cls-1" cx="150" cy="45" r="45"/><path class="cls-1" d="M247.5,120c-7.5,0-24,3-30,7.5A100.14,100.14,0,0,1,225,165s-18-60-75-60-75,60-75,60a100.14,100.14,0,0,1,7.5-37.5c-6-4.5-22.5-7.5-30-7.5C27,120,0,150,0,169.5V255a30.09,30.09,0,0,0,30,30H73.5C87,271.5,111,255,150,255s63,16.5,76.5,30H270a30.09,30.09,0,0,0,30-30V169.5C300,150,270,120,247.5,120ZM150,240a37.5,37.5,0,1,1,37.5-37.5A37.14,37.14,0,0,1,150,240Z"/></g></g></svg>