<svg xmlns="http://www.w3.org/2000/svg" viewBox="0 0 300 295.77"><defs><style>.cls-1{fill:#ff636e;}</style></defs><g id="Layer_2" data-name="Layer 2"><g id="Layer_1-2" data-name="Layer 1"><path class="cls-1" d="M160.24,142.44a35.73,35.73,0,0,1,5.42.41,98,98,0,0,0-32,120.81,176.06,176.06,0,0,1-35.72,3.41C37.18,267.07,0,241.33,0,204.76V178.05a35.61,35.61,0,0,1,35.61-35.61ZM267.07,80.12a44.51,44.51,0,1,1-44.51-44.51A44.51,44.51,0,0,1,267.07,80.12ZM97.93,0A62.32,62.32,0,1,1,35.61,62.32,62.32,62.32,0,0,1,97.93,0Zm81.29,168.11a35.61,35.61,0,0,1-25.47,44.12l-8.21,2.1c-.27,2.7-.41,5.45-.41,8.23a84.66,84.66,0,0,0,.58,9.87l6.23,1.47a35.6,35.6,0,0,1,25.92,44.85l-2.25,7.52a77.13,77.13,0,0,0,14.87,9.23l5.78-6.13a35.61,35.61,0,0,1,51.81,0l6,6.37a76.35,76.35,0,0,0,14.63-8.86L265.93,277a35.61,35.61,0,0,1,25.47-44.12l8.2-2.1c.26-2.7.4-5.44.4-8.22a84.7,84.7,0,0,0-.58-9.88l-6.22-1.47a35.61,35.61,0,0,1-25.92-44.85l2.25-7.51a76.94,76.94,0,0,0-14.87-9.23l-5.78,6.12a35.61,35.61,0,0,1-51.8,0l-6-6.38a76.35,76.35,0,0,0-14.63,8.86Zm43.35,72.25a17.81,17.81,0,1,1,17.8-17.8A17.8,17.8,0,0,1,222.57,240.36Z"/></g></g></svg>