<svg xmlns="http://www.w3.org/2000/svg" viewBox="0 0 300 240"><defs><style>.cls-1{fill:#ff636e;}</style></defs><g id="Layer_2" data-name="Layer 2"><g id="Layer_1-2" data-name="Layer 1"><path class="cls-1" d="M97.5,165a10.64,10.64,0,0,0-3.31.51A61.89,61.89,0,0,1,75,168.75a61.89,61.89,0,0,1-19.19-3.24A10.64,10.64,0,0,0,52.5,165,52.51,52.51,0,0,0,0,217.79,22.45,22.45,0,0,0,22.5,240h105A22.45,22.45,0,0,0,150,217.79,52.5,52.5,0,0,0,97.5,165ZM75,150a45,45,0,1,0-45-45A45,45,0,0,0,75,150ZM277.5,0H97.5C85.09,0,75,10.43,75,23.25V45a59.37,59.37,0,0,1,30,8.34V30H270V165H240V135H180v30H144.26a59.67,59.67,0,0,1,18.61,30H277.5c12.41,0,22.5-10.43,22.5-23.25V23.25C300,10.43,289.91,0,277.5,0Z"/></g></g></svg>