<svg xmlns="http://www.w3.org/2000/svg" viewBox="0 0 239.44 239.22"><defs><style>.cls-1{fill:#ff636e;}</style></defs><g id="Layer_2" data-name="Layer 2"><g id="Layer_1-2" data-name="Layer 1"><path class="cls-1" d="M119.7,71.78H6.36c-.83,0-1.67,0-2.49,0a3.88,3.88,0,0,1-3.8-3.87C0,61.15,0,54.42.05,47.7c0-2.22,1.46-3.33,3.42-4.07,8.54-3.2,17.06-6.47,25.58-9.7Q73.12,17.21,117.18.46a7.27,7.27,0,0,1,5.52.19q37.42,14.25,74.87,28.43l37.67,14.26c3.58,1.36,4.14,2.18,4.14,6.1,0,5.48-.16,11,.05,16.44.17,4.59-2,6-5.88,6Q176.63,71.71,119.7,71.78ZM119.61,24a15.84,15.84,0,1,0,15.94,15.81A16,16,0,0,0,119.61,24Z"/><path class="cls-1" d="M119.68,215.12H233c.74,0,1.49,0,2.24,0,2.49.14,4,1.6,4.08,4.1q.1,8,0,15.94a3.9,3.9,0,0,1-3.91,4c-.74.06-1.49,0-2.24,0H6.26c-.75,0-1.5,0-2.24,0a3.91,3.91,0,0,1-4-4q-.12-8.1,0-16.19c0-2.32,1.66-3.74,4-3.89.74,0,1.49,0,2.24,0Z"/><path class="cls-1" d="M119.62,175.42c-6.89,0-13.78,0-20.67,0-2.29,0-2.38,0-2.21-2.35.52-7.45,1.11-14.89,1.69-22.34q.87-11.41,1.77-22.82c.8-10.18,1.64-20.34,2.36-30.52.11-1.59.74-1.88,2.14-1.87q14.94.06,29.89,0c1.54,0,2.12.38,2.24,2,.73,10.51,1.58,21,2.4,31.51q1.4,17.74,2.81,35.48c.23,3,.37,6,.67,8.93.15,1.55-.4,2-1.93,2C133.73,175.38,126.67,175.42,119.62,175.42Z"/><path class="cls-1" d="M47.93,175.42H27.51c-2.63,0-2.7,0-2.52-2.55.53-7.28,1.1-14.56,1.67-21.84q.89-11.29,1.77-22.58c.81-10.33,1.65-20.67,2.39-31,.11-1.51.59-2,2.08-1.94Q48,95.59,63,95.5c1.54,0,1.94.52,2,2,.74,10.25,1.58,20.51,2.38,30.76q1.14,14.64,2.29,29.28c.39,5,.81,10.09,1.15,15.14.19,2.74.13,2.75-2.54,2.76Z"/><path class="cls-1" d="M191.47,175.42H171.05c-2.65,0-2.73,0-2.55-2.52.69-9.43,1.43-18.86,2.16-28.29q.89-11.42,1.79-22.82c.65-8.19,1.32-16.38,1.91-24.57.09-1.25.49-1.71,1.78-1.71q15.31.06,30.63,0c1.26,0,1.7.42,1.79,1.69.59,8,1.26,16,1.88,24.06q1.17,14.89,2.32,29.78c.56,7.19,1.13,14.39,1.64,21.59.2,2.78.13,2.79-2.76,2.79Z"/><path class="cls-1" d="M119.72,207.32H11.36a13.82,13.82,0,0,1-2.23,0,1.5,1.5,0,0,1-1.05-.73c-1.41-4.14.9-7.36,5.24-7.36H226.05c4.38,0,6.63,3.1,5.28,7.33a1.53,1.53,0,0,1-1,.76,13.92,13.92,0,0,1-2.24,0Z"/><path class="cls-1" d="M47.94,191.38H18.31c-2.31,0-2.31,0-2.34-2.28,0-.33,0-.67,0-1,0-3.41,1.44-4.86,4.84-4.87,8.22,0,16.43,0,24.65,0q14.57,0,29.13,0c4.34,0,6.64,3.21,5.23,7.36-.13.39-1,.75-1.51.77-2.32.08-4.65,0-7,0Z"/><path class="cls-1" d="M119.55,191.38H90.17c-2.43,0-2.43,0-2.45-2.43,0-.42,0-.83,0-1.25.09-2.93,1.54-4.46,4.49-4.46q27.51,0,55,0c3,0,4.42,1.59,4.42,4.77,0,4,.34,3.35-3.23,3.36C138.81,191.4,129.18,191.38,119.55,191.38Z"/><path class="cls-1" d="M191.43,191.38H161.8c-2.31,0-2.31,0-2.33-2.3a18.61,18.61,0,0,1,0-2.24,4,4,0,0,1,3.57-3.57,16.43,16.43,0,0,1,2,0c17.59,0,35.19,0,52.79,0a8.82,8.82,0,0,1,4,.92c1.44.76,2.31,5.27,1.44,6.65a2,2,0,0,1-1.48.53c-2.9.05-5.81,0-8.71,0Z"/><path class="cls-1" d="M47.89,87.73H29.23c-4.28,0-6.67-3.42-5.2-7.42a1.38,1.38,0,0,1,.85-.67,6.15,6.15,0,0,1,1.49,0q21.51,0,43,0c2.54,0,2.54,0,2.55,2.57,0,4.31-1.26,5.56-5.66,5.57Z"/><path class="cls-1" d="M119.73,87.73H101.06c-4.38,0-6.63-3.12-5.3-7.34a1.3,1.3,0,0,1,.79-.73,7.65,7.65,0,0,1,1.73-.07q21.41,0,42.8,0c2.64,0,2.64,0,2.63,2.74,0,4-1.31,5.39-5.32,5.4Z"/><path class="cls-1" d="M191.71,79.59c6.8,0,13.6,0,20.41,0,3.66,0,3.32-.71,3.32,3.51a5.68,5.68,0,0,1-.39,2.17,3.91,3.91,0,0,1-4,2.44c-13.1,0-26.21,0-39.31,0-2.77,0-4.22-1.58-4.33-4.37,0-.49,0-1,0-1.49,0-2.23,0-2.25,2.37-2.25Q180.76,79.57,191.71,79.59Z"/></g></g></svg>