<svg xmlns="http://www.w3.org/2000/svg" viewBox="0 0 300 329.3"><defs><style>.cls-1{fill:#ff636e;}</style></defs><g id="Layer_2" data-name="Layer 2"><g id="Layer_1-2" data-name="Layer 1"><path class="cls-1" d="M297.45,64a5.22,5.22,0,0,0-5.28-.11c-9.56,5.2-15.46,13.5-17.08,23.23l-7.52,82.91a15.87,15.87,0,0,1,5.63,5.59,15.55,15.55,0,0,1,.27,15.53l-33.94,64.39a7.41,7.41,0,1,1-13.32-6.51c.06-.14.13-.27.2-.4l34-64.49-.78-1.44a49.87,49.87,0,0,0-40.17,20.35l-17.73,24.16a78.11,78.11,0,0,0-15.15,46.22V329.3H249.9v-16c.28-1.14.55-2.23.78-3.37L292,229.12A72.77,72.77,0,0,0,300,196V68.63A5.24,5.24,0,0,0,297.45,64Z"/><path class="cls-1" d="M222.66,179.65l4-43.29A44.12,44.12,0,0,0,211.23,166l-2.32,26.69A63.93,63.93,0,0,1,222.66,179.65Z"/><path class="cls-1" d="M259.76,92.32a26.74,26.74,0,0,0-16.17,22.15l-5.3,57.17a64.49,64.49,0,0,1,14.57-3.36Z"/><path class="cls-1" d="M80.58,203.1a49.87,49.87,0,0,0-40.17-20.35l-.78,1.44,34,64.49A7.41,7.41,0,1,1,60.72,256a3,3,0,0,1-.21-.4L26.58,191.2a15.53,15.53,0,0,1,.27-15.53,15.84,15.84,0,0,1,5.62-5.59L25,87.14c-1.62-9.73-7.52-18-17.08-23.23A5.34,5.34,0,0,0,.65,66.07,5.28,5.28,0,0,0,0,68.62V196a72.81,72.81,0,0,0,8,33.16l41.33,80.82c.27,1.14.54,2.24.78,3.38v16h63.32V273.48a78.11,78.11,0,0,0-15.15-46.22Z"/><path class="cls-1" d="M77.41,179.65a64.26,64.26,0,0,1,13.77,13L88.85,166a44.11,44.11,0,0,0-15.44-29.63Z"/><path class="cls-1" d="M61.78,171.66l-5.3-57.17A26.75,26.75,0,0,0,40.31,92.32l6.9,76A64.53,64.53,0,0,1,61.78,171.66Z"/><path class="cls-1" d="M150,45.83a41,41,0,0,0-24.62,73.83h0v17.7h49.31v-17.7h0A41,41,0,0,0,150,45.83Z"/><path class="cls-1" d="M150,34.57a7.41,7.41,0,0,0,7.41-7.41h0v-20a7.41,7.41,0,0,0-14.82,0v20A7.41,7.41,0,0,0,150,34.57Z"/><path class="cls-1" d="M169,149.45H131.08a7.41,7.41,0,1,0,0,14.81H169a7.41,7.41,0,0,0,0-14.81Z"/><path class="cls-1" d="M195.93,48.91a7.4,7.4,0,0,0,5.24-2.17L215.31,32.6a7.41,7.41,0,0,0-10.49-10.47L190.69,36.26a7.42,7.42,0,0,0,5.24,12.65Z"/><path class="cls-1" d="M98.9,46.74a7.41,7.41,0,1,0,10.48-10.48L95.25,22.13A7.41,7.41,0,0,0,84.76,32.6Z"/><path class="cls-1" d="M200.15,86.33a7.42,7.42,0,0,0,7.42,7.41h20a7.41,7.41,0,0,0,0-14.81h-20a7.41,7.41,0,0,0-7.42,7.4Z"/><path class="cls-1" d="M72.51,93.74h20a7.41,7.41,0,1,0,0-14.81h-20a7.41,7.41,0,0,0,0,14.81Z"/></g></g></svg>