<svg xmlns="http://www.w3.org/2000/svg" viewBox="0 0 300 279.57"><defs><style>.cls-1{fill:#ff636e;}</style></defs><g id="Layer_2" data-name="Layer 2"><g id="Layer_1-2" data-name="Layer 1"><path class="cls-1" d="M291.47,266.12V83L191.64,54.31V266.12H184.4V0H69.31V266.38H62.59V157H.26v109.4H0v13.19H300V266.38l-8.53-.26ZM247.24,96.72H276v32.07H247.24Zm0,40.61H276V169.4H247.24Zm0,44H276v32.07H247.24Zm0,44H276v32.07H247.24Zm-44-128.54H232v32.07h-28.7Zm0,40.61H232V169.4h-28.7Zm0,44H232v32.07h-28.7Zm0,44H232v32.07h-28.7ZM35.43,167.07H54.05v19.4H35.43Zm0,37.5H54.05V224H35.43Zm0,36.72H54.05v19.4H35.43ZM8.79,167.59H27.41V187H8.79Zm0,37.24H27.41v19.39H8.79Zm0,36.72H27.41V261H8.79ZM137.07,21h28.71V49.66H137.07Zm0,57.41h28.71v28.71H137.07Zm0,58.45h28.71v28.71H137.07ZM87.67,21h28.71V49.66H87.67Zm0,57.41h28.71v28.71H87.67Zm0,58.45h28.71v28.71H87.67ZM97.76,187h57.41v79.4H141v-67H112v66.72H97.5L97.76,187Z"/></g></g></svg>